<?xml version="1.0" encoding="UTF-8" standalone="no"?>
<svg
   xmlns:dc="http://purl.org/dc/elements/1.1/"
   xmlns:cc="http://creativecommons.org/ns#"
   xmlns:rdf="http://www.w3.org/1999/02/22-rdf-syntax-ns#"
   xmlns:svg="http://www.w3.org/2000/svg"
   xmlns="http://www.w3.org/2000/svg"
   xmlns:xlink="http://www.w3.org/1999/xlink"
   xmlns:sodipodi="http://sodipodi.sourceforge.net/DTD/sodipodi-0.dtd"
   xmlns:inkscape="http://www.inkscape.org/namespaces/inkscape"
   width="1000"
   height="1000"
   viewBox="0 0 264.58333 264.58333"
   version="1.1"
   id="svg2845"
   sodipodi:docname="bopadoru.svg"
   inkscape:version="1.0.2 (e86c870879, 2021-01-15)">
  <defs
     id="defs2839">
    <linearGradient
       inkscape:collect="always"
       id="linearGradient1069">
      <stop
         style="stop-color:#646464;stop-opacity:1"
         offset="0"
         id="stop1065" />
      <stop
         style="stop-color:#969696;stop-opacity:0.9921568"
         offset="1"
         id="stop1067" />
    </linearGradient>
    <linearGradient
       inkscape:collect="always"
       id="linearGradient1061">
      <stop
         style="stop-color:#fa6464;stop-opacity:1"
         offset="0"
         id="stop1057" />
      <stop
         style="stop-color:#fa9696;stop-opacity:1"
         offset="1"
         id="stop1059" />
    </linearGradient>
    <linearGradient
       inkscape:collect="always"
       id="linearGradient1030">
      <stop
         style="stop-color:#ffc8c8;stop-opacity:0.89999998"
         offset="0"
         id="stop1026" />
      <stop
         style="stop-color:#ffc8c8;stop-opacity:0"
         offset="1"
         id="stop1028" />
    </linearGradient>
    <inkscape:path-effect
       effect="powerstroke"
       id="path-effect996"
       is_visible="true"
       lpeversion="1"
       offset_points="1,0.1322915"
       sort_points="true"
       interpolator_type="CubicBezierJohan"
       interpolator_beta="0.2"
       start_linecap_type="zerowidth"
       linejoin_type="extrp_arc"
       miter_limit="4"
       scale_width="1"
       end_linecap_type="zerowidth" />
    <inkscape:path-effect
       effect="skeletal"
       id="path-effect987"
       is_visible="true"
       lpeversion="1"
       pattern="M 0,5 C 0,2.24 2.24,0 5,0 7.76,0 10,2.24 10,5 10,7.76 7.76,10 5,10 2.24,10 0,7.76 0,5 Z"
       copytype="single_stretched"
       prop_scale="-0.12870187"
       scale_y_rel="false"
       spacing="0"
       normal_offset="0"
       tang_offset="0"
       prop_units="false"
       vertical_pattern="false"
       hide_knot="false"
       fuse_tolerance="0" />
    <inkscape:path-effect
       effect="skeletal"
       id="path-effect983"
       is_visible="true"
       lpeversion="1"
       pattern="M 0,5 C 0,2.24 2.24,0 5,0 7.76,0 10,2.24 10,5 10,7.76 7.76,10 5,10 2.24,10 0,7.76 0,5 Z"
       copytype="single_stretched"
       prop_scale="1"
       scale_y_rel="false"
       spacing="0"
       normal_offset="0"
       tang_offset="0"
       prop_units="false"
       vertical_pattern="false"
       hide_knot="false"
       fuse_tolerance="0" />
    <radialGradient
       inkscape:collect="always"
       xlink:href="#linearGradient1030"
       id="radialGradient1032"
       cx="120.91457"
       cy="150.8125"
       fx="120.91457"
       fy="150.8125"
       r="13.229166"
       gradientUnits="userSpaceOnUse"
       gradientTransform="matrix(1.5000001,0,0,1.5000001,-53.649153,-85.056913)" />
    <radialGradient
       inkscape:collect="always"
       xlink:href="#linearGradient1030"
       id="radialGradient1037"
       gradientUnits="userSpaceOnUse"
       gradientTransform="matrix(1.5000001,0,0,1.5000001,-8.7694137,-84.700504)"
       cx="120.91457"
       cy="150.8125"
       fx="120.91457"
       fy="150.8125"
       r="13.229166" />
    <linearGradient
       inkscape:collect="always"
       xlink:href="#linearGradient1061"
       id="linearGradient1063"
       x1="-173.5274"
       y1="125.95051"
       x2="-173.52736"
       y2="156.64217"
       gradientUnits="userSpaceOnUse" />
    <linearGradient
       inkscape:collect="always"
       xlink:href="#linearGradient1069"
       id="linearGradient1071"
       x1="127.72273"
       y1="110.47018"
       x2="127.72273"
       y2="141.16185"
       gradientUnits="userSpaceOnUse" />
  </defs>
  <sodipodi:namedview
     id="base"
     pagecolor="#ffffff"
     bordercolor="#666666"
     borderopacity="1.0"
     inkscape:pageopacity="0.0"
     inkscape:pageshadow="2"
     inkscape:zoom="2.8284274"
     inkscape:cx="660.9562"
     inkscape:cy="473.52798"
     inkscape:document-units="px"
     inkscape:current-layer="g949"
     inkscape:document-rotation="0"
     showgrid="false"
     units="px"
     inkscape:pagecheckerboard="true"
     inkscape:snap-nodes="true"
     inkscape:snap-global="false"
     inkscape:object-paths="true"
     inkscape:snap-intersection-paths="true"
     inkscape:snap-smooth-nodes="true"
     inkscape:snap-midpoints="false"
     inkscape:snap-object-midpoints="true"
     inkscape:snap-others="true"
     inkscape:snap-bbox="false"
     inkscape:window-width="2560"
     inkscape:window-height="1365"
     inkscape:window-x="3840"
     inkscape:window-y="720"
     inkscape:window-maximized="1"
     showguides="true"
     inkscape:guide-bbox="true" />
  <metadata
     id="metadata2842">
    <rdf:RDF>
      <cc:Work
         rdf:about="">
        <dc:format>image/svg+xml</dc:format>
        <dc:type
           rdf:resource="http://purl.org/dc/dcmitype/StillImage" />
        <dc:title />
      </cc:Work>
    </rdf:RDF>
  </metadata>
  <g
     id="g1160"
     inkscape:label="boseph"
     style="opacity:1"
     transform="translate(9.7780018,0.19749977)">
    <path
       style="display:inline;fill:#faf0f0;fill-opacity:1;stroke:#000000;stroke-width:1.05833;stroke-linecap:round;stroke-linejoin:round;stroke-miterlimit:4;stroke-dasharray:none;stroke-opacity:1"
       d="m 117.67877,207.48133 c -39.137155,-1.37975 -28.006443,-47.71057 -62.686179,-24.0232 -0.0934,-0.79395 0.255313,-1.54344 0.469139,-2.55149 -0.723239,0.74483 -1.829279,1.3461 -2.892114,1.96357 0.638936,-0.93517 1.339598,-2.70851 1.566091,-3.65051 -1.045873,-0.0395 -1.994022,0.5399 -2.908341,1.33357 0.170357,-1.17974 0.793214,-2.16281 1.244873,-3.17373 -1.291631,0.83931 -2.709042,1.42401 -4.148685,1.96349 1.097123,-1.61749 1.901881,-2.97955 2.429218,-4.60301 -0.793594,0.24789 -1.635794,0.38649 -2.705576,0.41819 0.648447,-0.6787 1.5847,-1.15861 1.989237,-1.8373 -0.442976,-0.3182 -0.887129,-0.63602 -1.604131,-0.86288 48.13627,-21.63192 36.866207,21.62357 70.836718,27.16557"
       id="path4398"
       sodipodi:nodetypes="ccccccccccccc"
       inkscape:label="tail" />
    <g
       id="g4426"
       inkscape:label="right leg"
       style="display:inline">
      <path
         style="fill:#8c7864;fill-opacity:1;stroke:#000000;stroke-width:1.05833;stroke-linecap:round;stroke-linejoin:round;stroke-miterlimit:4;stroke-dasharray:none;stroke-opacity:1"
         d="m 154.89802,241.99826 c -1.11631,10.45205 6.15711,13.42807 9.75226,11.81465 1.71185,-0.76824 0.31594,-7.44028 0.98126,-11.77063"
         id="path4388"
         sodipodi:nodetypes="csc" />
      <path
         style="display:inline;fill:#ffffff;fill-opacity:1;stroke:#000000;stroke-width:1.05833;stroke-linecap:round;stroke-linejoin:round;stroke-miterlimit:4;stroke-dasharray:none;stroke-opacity:1"
         d="m 153.91787,238.54546 0.27009,3.37255 c 4.41741,0.53735 8.74706,0.34495 13.19208,-0.004 l 0.37405,-3.96915"
         id="path4390"
         sodipodi:nodetypes="cccc" />
      <path
         style="display:inline;fill:#828282;fill-opacity:1;stroke:#000000;stroke-width:1.05833;stroke-linecap:round;stroke-linejoin:round;stroke-miterlimit:4;stroke-dasharray:none;stroke-opacity:1"
         d="m 147.84923,217.49885 c 1.54878,5.35708 3.23802,13.69402 4.12497,19.47821 0.11484,0.74894 0.52671,1.56838 1.31914,1.56876 5.2901,0.003 10.77915,-0.14319 15.73716,-0.74488 0.74032,-0.17466 1.31935,-0.7202 1.4384,-1.43138 1.40112,-9.05002 2.01996,-18.08824 0.39909,-26.47749"
         id="path4392"
         sodipodi:nodetypes="cssccc" />
      <path
         id="path4409"
         style="display:inline;fill:#000000;fill-opacity:0.1;stroke:none;stroke-width:0.999999px;stroke-linecap:butt;stroke-linejoin:miter;stroke-opacity:1"
         inkscape:label="shadow"
         d="m 645.80078,793.29297 -87,28.75 c 3.28552,11.36428 6.72097,26.27028 9.71094,41.0332 31.26515,-2.75574 59.45676,-10.13632 80.82617,-21.09961 0.45342,-16.63492 -0.49942,-32.96123 -3.53711,-48.68359 z"
         transform="scale(0.26458333)" />
    </g>
    <g
       id="g4434"
       inkscape:label="left leg"
       style="display:inline">
      <path
         style="display:inline;fill:#8c7864;fill-opacity:1;stroke:#000000;stroke-width:1.05833;stroke-linecap:round;stroke-linejoin:round;stroke-miterlimit:4;stroke-dasharray:none;stroke-opacity:1"
         d="m 129.43991,238.83142 c -2.83815,10.52413 0.83511,14.99624 4.69453,15.35709 2.3813,0.22264 6.23031,-5.94195 6.94413,-12.05494"
         id="path4386"
         sodipodi:nodetypes="csc" />
      <path
         style="display:inline;fill:#ffffff;fill-opacity:1;stroke:#000000;stroke-width:1.05833;stroke-linecap:round;stroke-linejoin:round;stroke-miterlimit:4;stroke-dasharray:none;stroke-opacity:1"
         d="m 129.63679,235.60774 -0.77664,2.99428 c 4.12782,1.66235 8.75661,2.89476 13.14048,3.70815 l 1.66658,-3.71111"
         id="path4384"
         sodipodi:nodetypes="cccc" />
      <path
         style="display:inline;fill:#828282;fill-opacity:1;stroke:#000000;stroke-width:1.05833;stroke-linecap:round;stroke-linejoin:round;stroke-miterlimit:4;stroke-dasharray:none;stroke-opacity:1"
         d="m 128.46219,213.50662 c 0.10949,5.57539 -0.41658,14.06547 -1.05691,19.88212 -0.0829,0.75315 0.10283,1.65127 0.86816,1.85673 5.10907,1.37207 10.44892,2.65154 15.39372,3.35358 0.7603,0.0229 1.4608,-0.35419 1.75986,-1.01033 3.69569,-8.37901 4.10701,-12.45896 4.71266,-20.98187"
         id="path4379"
         sodipodi:nodetypes="cssccc" />
      <path
         id="path920"
         style="display:inline;fill:#000000;fill-opacity:0.1;stroke:none;stroke-width:0.999999px;stroke-linecap:butt;stroke-linejoin:miter;stroke-opacity:1"
         inkscape:label="shadow"
         d="m 485.52734,806.95508 c 0.28536,14.53067 -0.58448,34.25796 -1.9375,52.33984 26.56291,4.67006 53.24673,5.9466 78.20508,4.29688 3.27782,-13.59843 4.35472,-26.52183 5.66211,-44.91992 z"
         transform="scale(0.26458333)" />
    </g>
    <path
       style="display:inline;fill:#828282;fill-opacity:1;stroke:#000000;stroke-width:1.05833;stroke-linecap:round;stroke-linejoin:round;stroke-miterlimit:4;stroke-dasharray:none;stroke-opacity:1"
       d="m 156.79084,182.91792 c -2.33781,7.00602 -3.33387,17.08839 -3.18051,27.40848 l 21.98292,0.70158 c 1.01174,-9.5036 0.88364,-18.85462 -2.24507,-29.13905"
       id="path4396"
       sodipodi:nodetypes="cccc"
       inkscape:label="right arm" />
    <g
       id="g4025"
       inkscape:label="body"
       style="display:inline;opacity:1;stroke-width:1.05833;stroke-miterlimit:4;stroke-dasharray:none">
      <path
         style="display:inline;opacity:1;fill:#828282;fill-opacity:1;stroke:#000000;stroke-width:1.05833;stroke-linecap:round;stroke-linejoin:round;stroke-miterlimit:4;stroke-dasharray:none;stroke-opacity:1"
         d="M 181.9105,212.50533 166.52862,184.2068 c -11.96375,3.06862 -44.27183,-0.22969 -56.77063,-4.94652 l -10.946635,36.38486 c 15.399795,6.05467 54.924495,15.49786 83.099145,-3.13981 z"
         id="path4007"
         sodipodi:nodetypes="ccccc" />
      <path
         id="path4011"
         style="display:inline;opacity:1;fill:#ffffff;fill-opacity:1;stroke:#000000;stroke-width:4;stroke-linecap:round;stroke-linejoin:round;stroke-miterlimit:4;stroke-dasharray:none;stroke-opacity:1"
         d="m 573.375,726.21289 c -15.16902,1.19945 -31.35449,1.85386 -48.12891,1.67188 -1.3e-4,0.002 1.4e-4,0.004 0,0.006 12.70853,30.70327 20.3601,58.13466 21.74024,81.50782 -63.30456,3.40938 -120.20784,-6.94662 -169.52982,-28.90435 -5.80014,11.43181 -9.43333,24.36832 -11.85198,37.77779 124.13648,47.77948 248.79455,44.27755 330.49714,-11.88889 -3.3812,-11.91095 -11.34618,-25.3772 -19.00201,-33.56007 -20.18988,12.00525 -44.3616,21.28039 -67.39654,26.66146 -8.83528,-25.70209 -22.10734,-56.01168 -36.32812,-73.27149 z"
         transform="scale(0.26458333)"
         sodipodi:nodetypes="scccccccccs" />
    </g>
    <g
       id="g4033"
       inkscape:label="left arm"
       style="display:inline;opacity:1;stroke-width:1.05833;stroke-miterlimit:4;stroke-dasharray:none">
      <path
         id="path4041"
         style="display:inline;fill:#828282;fill-opacity:1;stroke:#000000;stroke-width:4;stroke-linecap:round;stroke-linejoin:round;stroke-miterlimit:4;stroke-dasharray:none;stroke-opacity:1"
         d="m 389.83984,683.97656 c -13.94968,40.61023 -20.25595,71.51315 -27.92382,123.82617 l 0.0234,-0.002 c 19.02486,-8.25281 65.22369,-24.54684 131.88086,-12.5957 l 0.0195,-0.002 C 476.67656,758.23125 461.55571,720.5767 449.7207,680.94336"
         transform="scale(0.26458333)"
         sodipodi:nodetypes="cccccc" />
      <path
         id="path4027"
         style="display:inline;opacity:1;fill:#ffffff;fill-opacity:1;stroke:#000000;stroke-width:3.99999;stroke-linecap:round;stroke-linejoin:round;stroke-miterlimit:4;stroke-dasharray:none;stroke-opacity:1"
         d="M 446.01758,835.20898 C 409.83961,835.41604 371.92547,844.46096 356.25,873 367.42914,931.43751 505.41434,898.30596 516,845.75 501.24454,840.2335 474.156,835.04794 446.01758,835.20898 Z"
         transform="scale(0.26458333)"
         sodipodi:nodetypes="sccs" />
      <path
         style="display:inline;fill:#ffffff;fill-opacity:1;stroke:#000000;stroke-width:1.05833;stroke-linecap:round;stroke-linejoin:round;stroke-miterlimit:4;stroke-dasharray:none;stroke-opacity:1"
         d="m 109.05144,225.33792 c 0.30317,1.63432 9.06771,8.35185 13.30455,12.45177 3.76019,3.63866 7.8608,0.54995 12.60763,-0.41179 2.24511,-0.45488 7.65762,2.33092 8.0189,-0.1027 0.67528,-4.54887 -3.25083,-8.97336 -6.2883,-11.71748 -9.32606,-8.42537 -29.12996,-8.23682 -27.64278,-0.2198 z"
         id="path4055"
         sodipodi:nodetypes="ssssss" />
      <path
         style="display:inline;fill:none;stroke:#000000;stroke-width:1.05833;stroke-linecap:round;stroke-linejoin:round;stroke-miterlimit:4;stroke-dasharray:none;stroke-opacity:1"
         d="m 110.33121,221.58548 c -3.31097,-0.52231 -10.10631,4.30081 -7.78814,11.36036"
         id="path4057"
         sodipodi:nodetypes="cc" />
      <path
         style="display:inline;fill:none;stroke:#000000;stroke-width:1.05833;stroke-linecap:butt;stroke-linejoin:miter;stroke-miterlimit:4;stroke-dasharray:none;stroke-opacity:1"
         d="m 102.46556,227.6014 c 1.84576,2.46798 7.27663,3.34295 10.36818,1.8129"
         id="path4059"
         sodipodi:nodetypes="cc" />
      <ellipse
         style="display:inline;opacity:1;fill:#828282;fill-opacity:1;stroke:#000000;stroke-width:1.05833;stroke-linecap:round;stroke-linejoin:round;stroke-miterlimit:4;stroke-dasharray:none;stroke-opacity:1"
         id="path4048"
         cx="117.29131"
         cy="222.08574"
         rx="9.5174713"
         ry="4.4426413"
         inkscape:label="hand" />
      <path
         id="path4029"
         style="display:inline;fill:#ffffff;fill-opacity:1;stroke:#000000;stroke-width:4;stroke-linecap:round;stroke-linejoin:round;stroke-miterlimit:4;stroke-dasharray:none;stroke-opacity:1"
         d="m 444.06445,790.99023 c -52.42759,0.71089 -84.67279,18.09478 -90.81445,20.75977 -2.39645,20.34028 -0.79945,41.38888 3,61.25 27.86751,-50.73608 126.02323,-39.85915 159.75,-27.25 3.43759,-17.06706 -5.48974,-35.23808 -13,-48.75 -21.74165,-4.63066 -41.45968,-6.24673 -58.93555,-6.00977 z"
         transform="scale(0.26458333)" />
      <g
         id="g4358"
         inkscape:label="sack"
         style="display:inline;opacity:1">
        <path
           id="path4064"
           style="display:inline;opacity:1;fill:#ffffff;fill-opacity:1;stroke:#000000;stroke-width:3.99999;stroke-linecap:round;stroke-linejoin:round;stroke-miterlimit:4;stroke-dasharray:none;stroke-opacity:1"
           inkscape:label="path4064"
           d="m 208.74805,707.71875 c -0.955,0.011 -1.9116,0.0353 -2.86914,0.0742 C 49.378937,714.15936 18.2063,772.09419 14.015625,832.51172 10.366367,885.12361 30.638585,953.36172 55.5,966.5 c 34.92926,18.45872 90.26192,10.90794 142.88086,11.0957 68.29117,-4.65585 267.10808,37.3562 295.11914,-24.8457 7.30318,-21.05702 1.81421,-36.83116 -8.14648,-48.39062 -8.07118,1.7742 -15.65781,1.38721 -22.90625,-5.62696 -6.44823,-6.23984 -15.59239,-14.02638 -24.38477,-21.57422 -0.91202,-0.2448 -1.5625,-0.4082 -1.5625,-0.4082 0,0 -35.90937,36.31423 -66.17188,10.85938 C 351.89447,872.10417 366.94763,844.2122 357.87891,826.75781 323.89104,761.34208 268.91293,707.02235 208.74805,707.71875 Z"
           transform="scale(0.26458333)" />
        <path
           style="fill:none;stroke:#000000;stroke-width:1.05833;stroke-linecap:round;stroke-linejoin:round;stroke-miterlimit:4;stroke-dasharray:none;stroke-opacity:1"
           d="m 106.92474,249.2375 c 2.37011,-2.91936 2.54664,-8.35468 0.78395,-12.52381"
           id="path4366"
           sodipodi:nodetypes="cc" />
        <path
           style="fill:none;stroke:#000000;stroke-width:1.05833;stroke-linecap:round;stroke-linejoin:round;stroke-miterlimit:4;stroke-dasharray:none;stroke-opacity:1"
           d="m 90.421353,248.64218 c 4.047261,-3.58554 6.586854,-8.6682 8.110096,-13.36085"
           id="path4364"
           sodipodi:nodetypes="cc" />
        <path
           style="fill:none;stroke:#000000;stroke-width:1.05833;stroke-linecap:round;stroke-linejoin:round;stroke-miterlimit:4;stroke-dasharray:none;stroke-opacity:1"
           d="m 97.44381,234.34407 c -2.873308,4.01686 -9.436415,8.55007 -15.22454,10.8916"
           id="path4362"
           sodipodi:nodetypes="cc" />
        <path
           style="fill:none;stroke:#000000;stroke-width:1.05833;stroke-linecap:round;stroke-linejoin:round;stroke-miterlimit:4;stroke-dasharray:none;stroke-opacity:1"
           d="M 95.594605,230.55161 C 92.656479,226.61717 85.959279,219.9879 82.020832,217.88437"
           id="path4360"
           sodipodi:nodetypes="cc" />
        <path
           id="path4372"
           style="display:inline;fill:#000000;fill-opacity:0.1;stroke:none;stroke-width:3.99999;stroke-linecap:butt;stroke-linejoin:miter;stroke-miterlimit:4;stroke-dasharray:none;stroke-opacity:1"
           d="m 436.5,876.75 c 0,0 -34.28627,34.6626 -64.08789,12.5 l -0.01,0.002 c -21.63279,39.32255 -61.37764,77.36885 -112.49218,90.4961 0,0 0.004,0.002 0.004,0.002 86.66318,6.7142 211.79599,21.3872 233.58594,-27 7.30318,-21.05702 1.81421,-36.83117 -8.14648,-48.39062 -8.07118,1.77419 -15.65781,1.38721 -22.90625,-5.62696 -6.4481,-6.23994 -15.59226,-14.02648 -24.38464,-21.57432 C 437.15048,876.9134 436.5,876.75 436.5,876.75 Z"
           transform="scale(0.26458333)"
           inkscape:label="shadow" />
      </g>
      <path
         id="path4403"
         style="display:inline;fill:#000000;fill-opacity:0.1;stroke:#000000;stroke-width:0;stroke-linecap:butt;stroke-linejoin:miter;stroke-miterlimit:4;stroke-dasharray:none;stroke-opacity:1"
         d="m 449.7207,680.94336 -11.0957,0.5625 c 3.08807,36.1988 9.43606,73.55217 17.92578,109.64844 11.58395,0.42811 24.01492,1.67432 37.26953,4.05078 l 0.0195,-0.002 C 476.67662,758.23134 461.55571,720.5767 449.7207,680.94336 Z"
         transform="scale(0.26458333)"
         inkscape:label="shadow" />
    </g>
    <path
       style="display:inline;opacity:1;fill:#ffffff;fill-opacity:1;stroke:#000000;stroke-width:1.05833;stroke-linecap:round;stroke-linejoin:round;stroke-miterlimit:4;stroke-dasharray:none;stroke-opacity:1"
       d="m 92.421801,181.10183 c 1.452346,-4.18081 6.219326,-10.82338 9.956389,-11.25936 25.47409,-2.97194 54.54322,-0.38495 67.16094,5.72224 3.93835,1.90623 7.40858,7.99282 9.50472,11.33687 -5.87894,2.89457 -53.64294,13.93724 -86.622049,-5.79975 z"
       id="path4019"
       sodipodi:nodetypes="csscc"
       inkscape:label="collar" />
    <g
       id="layer2"
       inkscape:label="head"
       style="display:inline;opacity:1;stroke-width:1.05833;stroke-miterlimit:4;stroke-dasharray:none">
      <path
         style="display:inline;fill:#faf0f0;fill-opacity:1;stroke:#000000;stroke-width:1.05833;stroke-linecap:round;stroke-linejoin:miter;stroke-miterlimit:4;stroke-dasharray:none;stroke-opacity:1"
         d="M 59.213564,134.70384 C 66.552996,120.57593 56.804052,104.91752 61.926348,86.434963 77.432384,19.773034 202.57589,23.929441 199.29767,98.03372 c -0.36569,8.26635 3.47453,18.54158 6.87404,23.85455 -2.17942,-0.46884 -4.71924,-2.33476 -6.26747,-4.95785 -1.50511,5.98843 -8.34025,9.41831 -3.64823,16.4638 -2.70918,-0.33954 -6.44547,-1.87211 -8.51253,-3.27405 H 89.989648 c -1.028075,7.22054 0.880572,20.08314 5.893295,27.78266 -6.711672,-2.78045 -13.630672,-7.15599 -18.241147,-12.2543 0.158613,1.89216 1.201414,5.19321 1.777343,7.20291 -8.559289,-7.554 -10.856123,-11.57864 -11.973676,-25.06988 -2.743966,3.47835 -5.487933,5.13443 -8.231899,6.92228 z"
         id="path3641"
         sodipodi:nodetypes="ccscccccccccc"
         inkscape:label="back hair" />
      <g
         id="g1193"
         inkscape:label="face"
         style="display:inline">
        <path
           style="display:inline;opacity:0.998;fill:#ffebe6;fill-opacity:1;stroke:#000000;stroke-width:1.05833;stroke-linecap:round;stroke-linejoin:round;stroke-miterlimit:4;stroke-dasharray:none;stroke-opacity:1"
           d="M 187.93057,130.21371 C 212.44939,66.869919 139.96431,58.579478 104.71735,69.799568 73.214076,79.827939 63.124734,135.62418 102.01812,156.27384 c 26.61543,14.13092 88.35325,8.20161 91.51711,-13.04725 0.49746,-3.34099 -1.35174,-10.01931 -5.60466,-13.01288 z"
           id="path3793"
           sodipodi:nodetypes="csssc"
           inkscape:label="skin" />
        <circle
           style="display:inline;opacity:1;fill:url(#radialGradient1037);fill-opacity:1;stroke:none;stroke-width:2.64584;stroke-linecap:round;stroke-linejoin:round;stroke-miterlimit:4;stroke-dasharray:none;stroke-opacity:1"
           id="circle1035"
           cx="172.60246"
           cy="141.51826"
           r="19.84375"
           inkscape:label="right cheek" />
        <circle
           style="display:inline;opacity:1;fill:url(#radialGradient1032);fill-opacity:1;stroke:none;stroke-width:2.64584;stroke-linecap:round;stroke-linejoin:round;stroke-miterlimit:4;stroke-dasharray:none;stroke-opacity:1"
           id="path1024"
           cx="127.72273"
           cy="141.16185"
           r="19.84375"
           inkscape:label="left cheek" />
        <g
           id="g3805"
           inkscape:label="mask"
           style="display:inline;stroke-width:1.05833;stroke-miterlimit:4;stroke-dasharray:none">
          <path
             id="path4002"
             style="display:inline;opacity:1;fill:#3c3c3c;fill-opacity:1;stroke:#000000;stroke-width:4;stroke-linecap:round;stroke-linejoin:round;stroke-miterlimit:4;stroke-dasharray:none;stroke-opacity:1"
             d="m 308.69531,512.53906 c 15.26346,31.10813 40.35504,58.70684 76.88477,78.10156 -0.67491,19.6269 1.58338,47.97923 6.97629,66.30068 95.63305,27.3798 195.66059,38.67915 273.92252,18.39304 10.49661,-28.56323 19.27046,-56.46484 38.66827,-83.40212 19.91948,-27.66171 33.50013,-50.19645 24.15992,-70.63147 -29.31449,20.27224 -82.14915,28.3931 -144.2237,9.64612 -7.50017,-2.26511 -14.48988,-2.42944 -21.54129,-0.1484 -35.95476,11.63092 -81.78075,18.96372 -254.84678,-18.25941 z"
             transform="scale(0.26458333)"
             sodipodi:nodetypes="ccccscssc"
             inkscape:label="path3799" />
          <path
             id="path987"
             style="display:inline;opacity:1;fill:#dcdcdc;fill-opacity:1;stroke:#000000;stroke-width:4;stroke-linecap:round;stroke-linejoin:round;stroke-miterlimit:4;stroke-dasharray:none;stroke-opacity:1"
             d="m 742.09645,543.50731 c -40.80308,10.76782 -81.97091,7.46565 -120.55567,-3.13021 -9.64541,-2.64875 -15.60504,-2.58609 -23.72744,0.35686 -60.70843,21.99619 -149.25869,-2.58713 -161.16697,1.07495 -6.49063,1.99602 -8.86128,19.67741 -1.00184,24.93718 10.07929,6.74537 49.84998,7.02188 55.18359,14.80664 4.7719,6.9649 0.49182,19.48122 5.49066,30.06427 3.11241,6.58929 57.15754,15.41883 91.66364,16.47089 26.52557,0.80874 87.84055,-0.78668 90.65901,-7.17287 4.91507,-11.13676 6.76953,-26.12738 14.45149,-34.12855 7.64948,-7.96735 33.91017,-6.28145 42.38404,-12.19297 9.00225,-6.28013 14.49054,-32.80124 6.61949,-31.08619 z m -133.3136,11.90512 c 11.48138,-0.0588 25.58787,29.50159 20.90651,38.97009 -3.53662,7.15316 -23.93194,-0.0167 -23.93194,-0.0167 0,0 -18.44658,6.46699 -23.57843,-1.375 -7.95955,-12.16301 12.66385,-37.50701 26.60386,-37.57841 z m -173.32582,26.83366 c -3.49259,19.43539 -5.37842,52.16703 5.6342,66.55775 8.05027,10.51968 44.46007,15.18379 74.28777,20.99678 33.79455,6.58606 77.93564,9.41857 111.62983,8.52218 29.48311,-0.78436 56.35325,-4.04325 70.90685,-7.82437 4.07231,-6.78082 7.23171,-20.15308 16.01573,-40.02591 6.89543,-15.60012 17.83233,-37.4305 13.61217,-39.51311 -5.41613,-2.67282 -13.54077,-1.09339 -16.62047,2.91164 -6.94101,9.02652 -18.98125,56.54136 -27.74818,59.48957 -26.60302,8.94626 -75.13491,6.82898 -106.90308,5.6835 -27.334,-0.9856 -94.75802,-9.11298 -109.38679,-23.86188 -10.34584,-10.43081 -11.7264,-21.89896 -12.11737,-50.25938 -0.0901,-6.53196 -18.30656,-8.26432 -19.31066,-2.67677 z"
             transform="matrix(0.26458333,0,0,0.26458333,-9.7780018,-0.19749977)"
             sodipodi:nodetypes="csssssssssscsscsssssscsssssssss" />
          <path
             id="path3814"
             style="display:inline;opacity:1;fill:#dcdcdc;fill-opacity:1;stroke:#000000;stroke-width:3.99999;stroke-linecap:round;stroke-linejoin:round;stroke-miterlimit:4;stroke-dasharray:none;stroke-opacity:1"
             d="m 511.83008,618.09766 -2.96289,32.64648 c 24.1579,4.9502 52.08019,7.74823 67.40429,8.30078 26.16258,0.94336 63.68463,2.53895 90.97461,-1.92187 l 1.02344,-32.625 c -19.20223,3.26629 -59.88157,4.21199 -80.28711,3.58984 -23.79834,-0.72559 -56.88484,-5.1521 -76.15234,-9.99023 z"
             transform="matrix(0.26458333,0,0,0.26458333,-9.7780018,-0.19749977)" />
          <path
             style="fill:none;stroke:#000000;stroke-width:1.05833;stroke-linecap:round;stroke-linejoin:round;stroke-miterlimit:4;stroke-dasharray:none;stroke-opacity:1"
             d="m 125.2602,167.56647 c 12.19296,2.82965 29.55322,3.58894 41.63557,1.90523"
             id="path991"
             sodipodi:nodetypes="cc" />
          <path
             id="path1046"
             style="fill:none;stroke:#000000;stroke-width:4;stroke-linecap:round;stroke-linejoin:round;stroke-miterlimit:4;stroke-dasharray:none;stroke-opacity:1"
             d="m 533.75195,622.49805 -2.44336,32.13672 z m 20.74024,2.92578 -1.88672,31.85742 z m 90.36523,1.50586 0.16992,32.51758 z m -68.6914,0.55469 -0.86133,31.52343 z m 45.93945,0.48046 0.11523,32.14258 z m -22.53906,0.29883 -0.33789,31.54883 z"
             transform="matrix(0.26458333,0,0,0.26458333,-9.7780018,-0.19749977)" />
        </g>
        <g
           id="g1028"
           inkscape:label="right eye"
           transform="translate(-0.26457897)">
          <ellipse
             style="display:inline;fill:url(#linearGradient1063);fill-opacity:1;stroke:#000000;stroke-width:1.06035;stroke-linecap:round;stroke-linejoin:round;stroke-miterlimit:4;stroke-dasharray:none;stroke-opacity:1"
             id="ellipse951"
             transform="matrix(-0.9961947,0.08715574,0,1,0,0)"
             ry="15.34583"
             rx="11.420542"
             cy="141.29634"
             cx="-173.5274" />
          <g
             id="g957"
             inkscape:label="lid"
             transform="matrix(-1,0.08748866,0,1,299.58705,-10.730133)">
            <path
               style="display:inline;fill:#ffebe6;fill-opacity:1;stroke:#000000;stroke-width:0;stroke-linecap:round;stroke-linejoin:round;stroke-miterlimit:4;stroke-dasharray:none;stroke-opacity:1"
               d="m 138.70881,87.114999 v 27.781251 l -25.13542,-2.64583 V 87.114999 Z"
               id="path953"
               sodipodi:nodetypes="ccccc" />
            <path
               style="display:inline;fill:none;stroke:#000000;stroke-width:2.64583;stroke-linecap:round;stroke-linejoin:round;stroke-miterlimit:4;stroke-dasharray:none;stroke-opacity:1"
               d="m 113.57339,112.25042 25.13542,2.64583"
               id="path955"
               sodipodi:nodetypes="cc" />
          </g>
        </g>
        <g
           id="g979"
           inkscape:label="left eye"
           style="display:inline">
          <ellipse
             style="display:inline;fill:url(#linearGradient1071);fill-opacity:1;stroke:#000000;stroke-width:1.05833;stroke-linecap:round;stroke-linejoin:round;stroke-miterlimit:4;stroke-dasharray:none;stroke-opacity:1"
             id="path917"
             cx="127.72273"
             cy="125.81602"
             rx="11.377083"
             ry="15.34583" />
          <g
             id="g949"
             inkscape:label="lid"
             transform="translate(1.0027709)">
            <path
               style="display:inline;fill:#ffebe6;fill-opacity:1;stroke:#000000;stroke-width:0;stroke-linecap:round;stroke-linejoin:round;stroke-miterlimit:4;stroke-dasharray:none;stroke-opacity:1"
               d="m 138.70881,87.114999 v 27.781251 l -25.13542,-2.64583 V 87.114999 Z"
               id="path945"
               sodipodi:nodetypes="ccccc" />
            <path
               style="display:inline;fill:none;stroke:#000000;stroke-width:2.64583;stroke-linecap:round;stroke-linejoin:round;stroke-miterlimit:4;stroke-dasharray:none;stroke-opacity:1"
               d="m 113.57339,112.25042 25.13542,2.64583"
               id="path943"
               sodipodi:nodetypes="cc" />
          </g>
        </g>
        <path
           id="path1094"
           style="display:inline;fill:#000000;fill-opacity:0.1;stroke:none;stroke-width:3.99999;stroke-linecap:butt;stroke-linejoin:miter;stroke-miterlimit:4;stroke-dasharray:none;stroke-opacity:1"
           inkscape:label="shadow"
           d="m 543.06836,248.62109 c -40.15293,0.10817 -79.10738,5.99649 -110.33008,15.93555 -52.27447,16.64042 -88.94044,66.6253 -101.19726,124.07031 v 54.23828 29.89454 c 7.12096,32.32762 22.92205,63.18814 48.87109,88.26171 -0.13558,-0.42366 -0.26369,-0.80722 -0.40039,-1.23828 v -0.002 c -0.65938,-2.07923 -1.33163,-4.24179 -2.00781,-6.47852 -1.35231,-4.47344 -2.72053,-9.24016 -4.03711,-14.20703 -0.65814,-2.48281 -1.30424,-5.01592 -1.92774,-7.58789 v -0.002 c -0.31166,-1.28572 -0.61816,-2.58106 -0.91797,-3.88477 v -0.002 c -0.29994,-1.30431 -0.59299,-2.616 -0.8789,-3.93555 -0.28592,-1.3195 -0.56425,-2.64664 -0.83399,-3.97851 -0.26974,-1.33187 -0.53177,-2.66841 -0.7832,-4.00977 -0.50285,-2.68274 -0.96608,-5.38233 -1.38281,-8.08593 -0.0265,-0.17122 -0.0482,-0.34243 -0.0742,-0.51368 -0.38461,-2.53239 -0.73183,-5.06948 -1.02539,-7.59961 -0.15666,-1.35019 -0.30005,-2.69941 -0.42774,-4.04492 v -0.002 c -0.0106,-0.11225 -0.0171,-0.22369 -0.0273,-0.33594 -0.61537,-6.61515 -0.86889,-13.15582 -0.625,-19.44726 0.0496,-1.27911 0.11951,-2.54736 0.21094,-3.80469 v -0.002 c 0.0915,-1.2573 0.20438,-2.50364 0.33984,-3.73633 v -0.002 c 7.2e-4,-0.008 9.5e-4,-0.012 0.002,-0.0195 l 1.72657,-1.62304 c 0.0835,0.58295 0.16482,1.16508 0.25976,1.75586 v 0.002 c 0.13523,0.84125 0.28181,1.68965 0.43946,2.54492 0.31562,1.71243 0.67446,3.45072 1.07421,5.20703 0.19983,0.87783 0.40951,1.75884 0.62891,2.64453 0.0566,0.22829 0.11991,0.45861 0.17774,0.6875 1.51217,5.98284 3.44621,12.10742 5.66796,18.06055 l 0.002,0.002 c 0.65881,1.76516 1.34247,3.51566 2.04687,5.24219 v 0.002 c 0.7045,1.72672 1.42945,3.42999 2.17188,5.10157 v 0.002 c 0.74243,1.67149 1.50272,3.31032 2.27539,4.91015 0.77314,1.60094 1.55974,3.16115 2.35547,4.67383 0.7955,1.51215 1.59978,2.9754 2.41015,4.38282 0.40545,0.70424 0.81101,1.39344 1.21875,2.06835 0.40747,0.67442 0.81583,1.33344 1.22461,1.97657 2.45294,3.85916 4.9215,7.1349 7.30078,9.60547 -0.15927,-2.78964 -0.29072,-5.5529 -0.39453,-8.29102 -0.31139,-8.21435 -0.37688,-16.19939 -0.21875,-23.95898 0.0527,-2.58652 0.13091,-5.14667 0.23242,-7.6836 0.9331,-23.30834 3.89932,-44.52511 8.24024,-63.86133 l 2.95508,-2.78125 c 0.31823,4.76792 0.93594,9.53727 1.81445,14.24414 v 0.002 c 0.2332,1.24841 0.48301,2.49218 0.75,3.73047 v 0.002 c 0.53412,2.47718 1.1347,4.93152 1.79101,7.35352 0.65662,2.4232 1.37031,4.81373 2.13086,7.1621 0.76041,2.34781 1.5681,4.6529 2.41407,6.90626 0.84597,2.25339 1.72933,4.45434 2.64257,6.59374 1.36989,3.20909 2.80573,6.27825 4.2754,9.17579 1.46936,2.897 2.97315,5.62502 4.48046,8.14453 0.50227,0.83943 1.00593,1.65657 1.50782,2.44922 3.51522,5.55171 6.99245,9.92545 10.04101,12.70117 h 0.002 c 0.43509,0.39609 0.86087,0.76004 1.27734,1.08984 h 0.002 c 0.83316,0.65968 1.62634,1.18495 2.3711,1.56445 v -0.002 c -0.59985,-1.41929 -1.16516,-2.8398 -1.70704,-4.25976 -0.1508,-0.39527 -0.28912,-0.79029 -0.43554,-1.18555 -0.37342,-1.00785 -0.73869,-2.01578 -1.08399,-3.02344 -0.17348,-0.50611 -0.33749,-1.01157 -0.5039,-1.51758 -0.30728,-0.93437 -0.60652,-1.869 -0.89063,-2.80273 -0.14967,-0.49206 -0.29403,-0.98473 -0.4375,-1.47656 -0.27099,-0.92973 -0.5306,-1.85844 -0.77929,-2.78711 -0.1338,-0.49954 -0.26912,-0.99885 -0.39649,-1.49805 -0.25247,-0.98857 -0.48878,-1.97598 -0.7168,-2.96289 -0.0945,-0.40819 -0.19482,-0.81676 -0.28515,-1.22461 -0.95123,-4.29967 -1.67821,-8.58092 -2.20508,-12.82812 -0.0265,-0.21657 -0.0485,-0.43218 -0.0742,-0.64844 -0.14022,-1.17555 -0.26835,-2.34751 -0.37891,-3.51758 -0.0302,-0.33562 -0.0604,-0.67065 -0.0898,-1.00586 -0.0945,-1.07788 -0.17775,-2.15401 -0.24805,-3.22656 -0.0227,-0.33298 -0.0432,-0.66579 -0.0625,-0.99805 -0.0699,-1.19017 -0.12601,-2.37778 -0.16796,-3.56055 -0.004,-0.1542 -0.0138,-0.30876 -0.0176,-0.46289 -0.23207,-7.14723 0.0378,-14.15215 0.66797,-20.94336 l 78.4707,-98.28515 c -12.64751,31.81108 -3.08051,65.52275 5.5293,79.6914 3.42183,-23.83733 18.67748,-49.6514 33.60351,-58.91406 5.98133,39.59529 25.38285,76.77955 48.64649,99.66406 -0.0733,-0.85141 -0.13566,-1.73578 -0.18555,-2.64453 -0.34772,-6.36128 -0.0903,-13.88148 1.18555,-19.10547 10.67845,22.92503 39.68616,53.9338 59,65.25 -0.41239,-1.09179 -0.81859,-2.19562 -1.2168,-3.31054 -12.34435,-34.56155 -17.84135,-79.64011 -14.5332,-99.18946 8.14076,21.60254 27.01999,39.78951 43.25,49.25 -0.43072,-0.92269 -0.85652,-1.87564 -1.27344,-2.85937 -2.91821,-6.886 -5.47528,-15.2184 -7.35938,-24.30469 -0.53831,-2.59608 -1.02025,-5.2538 -1.4414,-7.95703 -1.26342,-8.10966 -1.96709,-16.62901 -1.91406,-25.12305 21.04264,32.8564 58.14294,51.44484 85.10742,60.30469 C 795.9274,300.46126 664.06174,248.29517 543.06836,248.62109 Z M 366.70703,460.89062 c 0.0588,0.74431 0.1289,1.49847 0.21094,2.26172 -0.0824,-0.76045 -0.15423,-1.51182 -0.21289,-2.2539 5.1e-4,-0.003 9.5e-4,-0.004 0.002,-0.008 z"
           transform="matrix(0.26458333,0,0,0.26458333,-9.7780018,-0.19749977)" />
      </g>
      <g
         id="g1210"
         inkscape:label="front hair"
         style="display:inline">
        <path
           style="display:inline;fill:#faf0f0;fill-opacity:1;stroke:none;stroke-width:1.05833;stroke-linecap:butt;stroke-linejoin:miter;stroke-miterlimit:4;stroke-dasharray:none;stroke-opacity:1"
           d="m 130.96875,52.652083 63.41638,28.707291 V 113.63854 L 165.76462,103.12285 122.56048,89.775391 74.92884,116.54895 V 77.186247 Z"
           id="path3797"
           sodipodi:nodetypes="cccccccc"
           inkscape:label="hair" />
        <g
           id="g3698"
           inkscape:label="right fringe"
           style="display:inline;stroke-width:1.05833;stroke-miterlimit:4;stroke-dasharray:none">
          <path
             style="display:inline;fill:#faf0f0;fill-opacity:1;stroke:none;stroke-width:1.05833;stroke-linecap:round;stroke-linejoin:miter;stroke-miterlimit:4;stroke-dasharray:none;stroke-opacity:1"
             d="m 165.76462,103.12285 c 5.75596,8.98747 16.06239,13.94872 23.2417,16.19294 1.50795,2.09295 2.94972,3.88812 4.2095,4.86431 0.31691,-1.89218 0.7285,-3.31099 1.16931,-4.58367 v -8.98507 L 165.76462,94.317026 Z"
             id="path3689"
             sodipodi:nodetypes="ccccccc" />
          <path
             style="display:inline;fill:none;stroke:#000000;stroke-width:1.05833;stroke-linecap:round;stroke-linejoin:miter;stroke-miterlimit:4;stroke-dasharray:none;stroke-opacity:1"
             d="m 165.76462,103.12285 c 5.75596,8.98747 16.06239,13.94872 23.2417,16.19294 1.50795,2.09295 2.94972,3.88812 4.2095,4.86431 0.31691,-1.89218 0.7285,-3.31099 1.16931,-4.58367"
             id="path3693"
             sodipodi:nodetypes="cccc" />
          <path
             style="display:inline;fill:none;stroke:#000000;stroke-width:1.05833;stroke-linecap:round;stroke-linejoin:miter;stroke-miterlimit:4;stroke-dasharray:none;stroke-opacity:1"
             d="m 189.00632,119.31579 c -1.66084,-2.36156 -4.0224,-7.67063 -4.0224,-7.67063"
             id="path3691"
             sodipodi:nodetypes="cc" />
        </g>
        <g
           id="g3686"
           inkscape:label="center fringe"
           style="display:inline;stroke-width:1.05833;stroke-miterlimit:4;stroke-dasharray:none"
           sodipodi:insensitive="true">
          <path
             style="display:inline;fill:#faf0f0;fill-opacity:1;stroke:none;stroke-width:1.05833;stroke-linecap:round;stroke-linejoin:miter;stroke-miterlimit:4;stroke-dasharray:none;stroke-opacity:1"
             d="m 165.76462,103.12285 c -0.0374,5.99301 1.34847,12.03354 3.17184,15.93965 -4.29419,-2.50309 -9.28932,-7.31506 -11.44323,-13.03073 -0.90351,5.33928 0.67563,17.87596 4.16718,27.11979 -5.11012,-2.99408 -12.78507,-11.19848 -15.61041,-17.26406 -0.38577,1.57964 -0.41946,3.95254 -0.26459,5.75469 -6.15517,-6.05486 -11.28851,-15.89335 -12.87108,-26.369609 -3.94917,2.450743 -7.98553,9.280879 -8.89089,15.587839 -2.27801,-3.74879 -4.80929,-12.668342 -1.46296,-21.085023 V 78.993626 l 43.20414,15.3234 z"
             id="path3679"
             sodipodi:nodetypes="cccccccccccc" />
          <path
             style="display:inline;fill:none;fill-opacity:1;stroke:#000000;stroke-width:1.05833;stroke-linecap:round;stroke-linejoin:miter;stroke-miterlimit:4;stroke-dasharray:none;stroke-opacity:1"
             d="m 122.56048,89.775397 c -3.34633,8.416681 -0.81505,17.336233 1.46296,21.085023 0.90536,-6.30696 4.94172,-13.137096 8.89089,-15.587839 1.58257,10.476259 6.71591,20.314749 12.87108,26.369609 -0.15487,-1.80215 -0.12118,-4.17505 0.26459,-5.75469 2.82534,6.06558 10.50029,14.26998 15.61041,17.26406 -3.49155,-9.24383 -5.07069,-21.78051 -4.16718,-27.11979 2.15391,5.71567 7.14904,10.52764 11.44323,13.03073 -1.82337,-3.90611 -3.2092,-9.94664 -3.17184,-15.93965"
             id="path3791"
             sodipodi:nodetypes="ccccccccc" />
          <path
             style="display:inline;fill:none;stroke:#000000;stroke-width:1.05833;stroke-linecap:round;stroke-linejoin:miter;stroke-miterlimit:4;stroke-dasharray:none;stroke-opacity:1"
             d="m 146.05,115.8875 c -1.14095,-2.47195 -2.74506,-6.54844 -2.74506,-6.54844"
             id="path3681"
             sodipodi:nodetypes="cc" />
        </g>
        <g
           id="g3661"
           inkscape:label="left fringe"
           style="display:inline;stroke-width:1.05833;stroke-miterlimit:4;stroke-dasharray:none">
          <path
             id="path3655"
             style="display:inline;fill:#faf0f0;fill-opacity:1;stroke:none;stroke-width:4;stroke-linecap:round;stroke-linejoin:miter;stroke-miterlimit:4;stroke-dasharray:none;stroke-opacity:1"
             d="m 463.2207,339.30859 2e-5,-40.75 -180.02541,114.8836 9.6e-4,84.36098 c 9.4914,25.81112 38.90807,64.79153 53.83107,75.7398 -8.09757,-23.52193 -26.02761,-77.40349 -18.66601,-115.01758 1.98889,25.19316 17.20068,61.28213 29.88867,74.45703 -2.54869,-44.63395 2.11273,-82.64372 10.57812,-115.03125 -0.60579,40.26955 23.81565,83.49923 35.73829,89.57422 -10.11859,-23.93983 -11.85387,-48.04882 -9.81641,-69.9375 14.74756,-29.43178 53.03555,-77.15879 78.4707,-98.2793 z"
             transform="scale(0.26458333)"
             sodipodi:nodetypes="ccccccccccc" />
          <path
             style="display:inline;fill:none;stroke:#000000;stroke-width:1.05833;stroke-linecap:butt;stroke-linejoin:miter;stroke-miterlimit:4;stroke-dasharray:none;stroke-opacity:1"
             d="m 101.7957,115.78361 c 3.90011,-7.78675 14.03361,-20.418878 20.76478,-26.008219"
             id="path3672"
             sodipodi:nodetypes="cc" />
          <path
             style="display:inline;fill:none;stroke:#000000;stroke-width:1.05833;stroke-linecap:round;stroke-linejoin:miter;stroke-miterlimit:4;stroke-dasharray:none;stroke-opacity:1"
             d="m 74.929012,131.71042 c 2.511266,6.82919 10.294433,17.14251 14.242812,20.03924 -2.142484,-6.22351 -6.886635,-20.47967 -4.93888,-30.43173 0.526228,6.66569 4.551193,16.21429 7.908224,19.70015 -0.674342,-11.8094 0.558907,-21.86585 2.79871,-30.43505 -0.160283,10.65465 6.301072,22.09252 9.455602,23.69986 -4.638701,-10.97483 -2.62424,-22.08824 -0.28194,-30.03706"
             id="path3643"
             sodipodi:nodetypes="ccccccc" />
          <path
             style="display:inline;fill:none;stroke:#000000;stroke-width:1.05833;stroke-linecap:round;stroke-linejoin:miter;stroke-miterlimit:4;stroke-dasharray:none;stroke-opacity:1"
             d="m 94.939878,110.58303 c 0.110973,-2.6747 1.302308,-7.9247 1.302308,-7.9247"
             id="path3649"
             sodipodi:nodetypes="cc" />
          <path
             style="display:inline;fill:none;stroke:#000000;stroke-width:1.05833;stroke-linecap:round;stroke-linejoin:miter;stroke-miterlimit:4;stroke-dasharray:none;stroke-opacity:1"
             d="m 84.232945,121.31793 c -0.209344,-1.93496 -0.282365,-5.48675 0.0037,-7.84865"
             id="path3653"
             sodipodi:nodetypes="cc" />
        </g>
      </g>
      <g
         id="g3789"
         inkscape:label="right ear"
         style="display:inline;stroke-width:1.05833;stroke-miterlimit:4;stroke-dasharray:none">
        <path
           style="fill:#faf5f5;fill-opacity:1;stroke:#000000;stroke-width:1.05833;stroke-linecap:round;stroke-linejoin:miter;stroke-miterlimit:4;stroke-dasharray:none;stroke-opacity:1"
           d="m 197.70037,78.378626 c 2.64671,2.465419 4.50518,3.461668 5.82898,3.660203 -0.60854,-1.447349 -1.15099,-3.094908 -1.25539,-4.714351 0,0 2.89426,3.079584 5.22552,3.704167 -1.27319,-3.072114 -1.65671,-5.055134 -1.7198,-7.342188 2.94462,0.880683 4.96407,0.79759 7.2099,0.132292 -2.58922,-1.877907 -4.05388,-3.802269 -5.22552,-6.151562 1.90786,-1.688299 3.83377,-2.360574 6.01927,-2.844271 -0.71675,-1.833838 -2.00533,-3.493703 -4.23333,-4.828646 2.28195,-0.827394 3.63337,-1.847824 4.69635,-3.373437 -1.65077,-0.204802 -3.31275,-0.549665 -5.02528,-1.526464 0.84882,-0.626135 2.19203,-1.296325 2.97476,-1.450099 -0.54602,-0.670924 -1.10231,-1.341849 -2.28844,-2.012773"
           id="path3779"
           sodipodi:nodetypes="ccccccccccccc" />
        <path
           style="display:inline;fill:#faf0f0;fill-opacity:1;stroke:#000000;stroke-width:1.05833;stroke-linecap:round;stroke-linejoin:miter;stroke-miterlimit:4;stroke-dasharray:none;stroke-opacity:1"
           d="m 170.43285,48.21768 c 13.76429,-14.955007 28.52043,-12.485398 36.50027,-26.977869 9.02585,26.101624 0.0408,46.249897 -9.87112,57.902803"
           id="path3704"
           sodipodi:nodetypes="ccc" />
        <path
           id="path3781"
           style="display:inline;fill:#000000;fill-opacity:0.1;stroke:none;stroke-width:4;stroke-linecap:round;stroke-linejoin:miter;stroke-miterlimit:4;stroke-dasharray:none;stroke-opacity:1"
           d="M 782.10938,80.277344 C 783.64083,166.70136 765.45287,220.21603 721.76953,272.375 l 23.03125,26.74609 c 37.46238,-44.04248 71.42204,-120.19194 37.3086,-218.843746 z"
           transform="scale(0.26458333)"
           inkscape:label="shadow" />
      </g>
      <g
         id="g3620"
         inkscape:label="left ear"
         style="display:inline;stroke-width:1.05833;stroke-miterlimit:4;stroke-dasharray:none">
        <path
           style="display:inline;opacity:1;fill:#faf5f5;fill-opacity:1;stroke:#000000;stroke-width:1.05833;stroke-linecap:round;stroke-linejoin:miter;stroke-miterlimit:4;stroke-dasharray:none;stroke-opacity:1"
           d="m 50.019997,36.064364 c -1.642463,0.33841 -3.671559,0.09715 -5.966872,-0.643271 1.320585,3.136345 5.159374,5.258594 5.159374,5.258594 -3.21952,1.509075 -4.211512,2.204468 -5.357812,3.108854 0,0 3.825031,0.845685 5.390885,1.256771 -2.96652,3.421922 -3.361666,5.966633 -3.671093,8.102865 1.818946,-0.535145 3.969822,-1.046892 4.828646,-1.058334 -0.771921,2.78899 -3.869532,4.7625 -3.869532,4.7625 1.378038,0.417946 3.720815,0.455378 4.927865,0.496094 -1.014448,0.858624 -2.044287,1.948728 -2.910417,2.84427 1.415512,-0.02866 2.28008,0.262735 3.274219,0.529167 -1.619417,1.062309 -3.536049,2.48401 -4.564062,3.96875 2.138422,0.16254 3.973602,0.835581 5.490103,1.355989 -3.902373,5.225634 -3.756825,10.062457 -3.307291,12.633855 1.381203,-1.390945 4.806199,-2.861504 6.515364,-2.844271 1.319326,5.462159 -2.610533,8.820294 -4.365625,10.417969 4.223811,1.525456 8.599453,0.808856 12.071615,-0.165365 0.148795,1.570998 0.375963,3.295134 0.09922,5.291666 1.425603,-1.651511 3.101252,-3.377337 3.935677,-3.869531 1.280226,0.703705 2.251119,2.221049 2.745051,3.274219 0.42327,-2.508145 1.335746,-6.256416 3.50573,-8.334375 1.19404,0.393354 2.175399,1.629378 2.645833,2.513542 1.822019,-2.278594 3.213233,-5.119428 3.803385,-7.70599 1.507544,0.947661 2.593706,1.33866 4.200261,1.521355 -0.511858,-2.32511 -0.3887,-4.427965 0.860139,-6.136831 z"
           id="path3525"
           sodipodi:nodetypes="cccccccccccccccccccccccccc" />
        <path
           style="display:inline;fill:#faf0f0;fill-opacity:1;stroke:#000000;stroke-width:1.05833;stroke-linecap:round;stroke-linejoin:miter;stroke-miterlimit:4;stroke-dasharray:none;stroke-opacity:1"
           d="M 94.323957,52.255208 C 78.477284,37.7439 57.40171,37.297701 48.551041,23.547916 c -1.011281,30.960481 29.678911,41.935635 38.89375,50.8"
           id="path3521"
           sodipodi:nodetypes="ccc" />
        <path
           style="display:inline;fill:none;stroke:#000000;stroke-width:1.05833;stroke-linecap:round;stroke-linejoin:miter;stroke-miterlimit:4;stroke-dasharray:none;stroke-opacity:1"
           d="m 52.751301,66.046614 c 0.36287,-0.47476 1.091407,-1.422136 1.091407,-1.422136"
           id="path3527"
           sodipodi:nodetypes="cc" />
        <path
           style="display:inline;fill:none;stroke:#000000;stroke-width:1.05833;stroke-linecap:round;stroke-linejoin:miter;stroke-miterlimit:4;stroke-dasharray:none;stroke-opacity:1"
           d="m 55.959374,75.836197 c 1.323276,0.02668 1.780865,0.145187 1.780865,0.145187"
           id="path3529"
           sodipodi:nodetypes="cc" />
        <path
           style="display:inline;fill:none;stroke:#000000;stroke-width:1.05833;stroke-linecap:round;stroke-linejoin:miter;stroke-miterlimit:4;stroke-dasharray:none;stroke-opacity:1"
           d="m 63.665364,86.088801 c 0.636112,-0.197051 1.885828,-0.65944 1.885828,-0.65944"
           id="path3531"
           sodipodi:nodetypes="cc" />
        <path
           style="display:inline;fill:none;stroke:#000000;stroke-width:1.05833;stroke-linecap:round;stroke-linejoin:miter;stroke-miterlimit:4;stroke-dasharray:none;stroke-opacity:1"
           d="m 67.700261,87.510936 c 0.701835,-0.445418 1.312071,-0.655024 1.312071,-0.655024"
           id="path3533"
           sodipodi:nodetypes="cc" />
        <path
           style="display:inline;fill:none;stroke:#000000;stroke-width:1.05833;stroke-linecap:round;stroke-linejoin:miter;stroke-miterlimit:4;stroke-dasharray:none;stroke-opacity:1"
           d="m 73.951041,82.45078 c 0.457811,-0.464068 1.211831,-1.534932 1.211831,-1.534932"
           id="path3535"
           sodipodi:nodetypes="cc" />
        <path
           style="display:inline;fill:none;stroke:#000000;stroke-width:1.05833;stroke-linecap:round;stroke-linejoin:miter;stroke-miterlimit:4;stroke-dasharray:none;stroke-opacity:1"
           d="m 80.400259,77.258332 c 0.116999,-0.760343 0.09464,-2.305936 0.09464,-2.305936"
           id="path3537"
           sodipodi:nodetypes="cc" />
        <path
           style="display:inline;fill:none;stroke:#000000;stroke-width:1.05833;stroke-linecap:round;stroke-linejoin:miter;stroke-miterlimit:4;stroke-dasharray:none;stroke-opacity:1"
           d="m 50.403125,52.089843 c 1.195772,-0.09965 2.225127,-0.07793 3.595343,0.178054"
           id="path3539"
           sodipodi:nodetypes="cc" />
        <path
           style="fill:none;stroke:#000000;stroke-width:1.05833;stroke-linecap:round;stroke-linejoin:miter;stroke-miterlimit:4;stroke-dasharray:none;stroke-opacity:1"
           d="m 52.665459,46.912484 c -0.634537,0.302449 -1.256302,0.579353 -2.011203,1.12253 0.556613,0.131013 1.560141,0.539061 1.964431,0.841902"
           id="path3541"
           sodipodi:nodetypes="ccc" />
        <path
           style="fill:none;stroke:#000000;stroke-width:1.05833;stroke-linecap:round;stroke-linejoin:miter;stroke-miterlimit:4;stroke-dasharray:none;stroke-opacity:1"
           d="m 57.910677,56.438932 c -0.67434,-0.06677 -2.209132,-0.02148 -2.902149,0.09922 0.923792,0.618486 1.859852,1.230837 2.61276,1.934765"
           id="path3543"
           sodipodi:nodetypes="ccc" />
        <path
           style="fill:none;stroke:#000000;stroke-width:1.05833;stroke-linecap:round;stroke-linejoin:miter;stroke-miterlimit:4;stroke-dasharray:none;stroke-opacity:1"
           d="m 63.053515,62.400325 c -0.877038,0.625461 -2.146985,2.00627 -2.80293,3.12539 0.667971,-0.20007 3.104774,-0.240297 3.778581,-0.157096"
           id="path3545"
           sodipodi:nodetypes="ccc" />
        <path
           style="fill:none;stroke:#000000;stroke-width:1.05833;stroke-linecap:round;stroke-linejoin:miter;stroke-miterlimit:4;stroke-dasharray:none;stroke-opacity:1"
           d="m 65.170181,71.379621 c -0.709742,1.955468 -1.382317,3.388509 -3.332096,5.010547 1.544515,0.230314 2.499419,0.335529 4.473112,0.173633"
           id="path3547"
           sodipodi:nodetypes="ccc" />
        <path
           style="fill:none;stroke:#000000;stroke-width:1.05833;stroke-linecap:round;stroke-linejoin:miter;stroke-miterlimit:4;stroke-dasharray:none;stroke-opacity:1"
           d="m 70.387434,76.580338 c 0.205478,1.014849 0.06487,2.06116 -0.181901,3.117122 0.87975,-0.58958 1.574948,-1.264445 2.207617,-2.058789"
           id="path3551"
           sodipodi:nodetypes="ccc" />
        <path
           style="fill:none;stroke:#000000;stroke-width:1.05833;stroke-linecap:round;stroke-linejoin:miter;stroke-miterlimit:4;stroke-dasharray:none;stroke-opacity:1"
           d="m 73.884895,70.519726 c -0.778231,0.140886 -1.341163,0.372579 -2.124935,0.901237 0.805515,0.320535 1.516596,0.737588 1.909961,1.058333"
           id="path3553"
           sodipodi:nodetypes="ccc" />
        <path
           style="display:inline;fill:none;stroke:#000000;stroke-width:1.05833;stroke-linecap:round;stroke-linejoin:miter;stroke-miterlimit:4;stroke-dasharray:none;stroke-opacity:1"
           d="m 55.827083,66.840364 c -0.815728,0.75499 -1.335402,1.135359 -2.033985,2.050521 0.989574,-0.20068 1.587131,-0.319529 2.811198,-0.363803"
           id="path3555"
           sodipodi:nodetypes="ccc" />
        <path
           id="path3594"
           style="display:inline;fill:#000000;fill-opacity:0.1;stroke:none;stroke-width:4;stroke-linecap:butt;stroke-linejoin:miter;stroke-miterlimit:4;stroke-dasharray:none;stroke-opacity:1"
           inkscape:label="shadow"
           d="M 189.05273,136.30664 C 188.90565,196.15142 287.89796,271.33843 318.76172,286.5 L 323,274.55664 l -0.004,-0.004 C 288.09717,247.13104 210.62767,212.09113 189.08008,136.33594 Z"
           transform="scale(0.26458333)" />
      </g>
      <g
         id="g3517"
         inkscape:label="hat"
         style="display:inline;stroke-width:1.05833;stroke-miterlimit:4;stroke-dasharray:none">
        <circle
           style="display:inline;fill:#ffffff;fill-opacity:1;stroke:#000000;stroke-width:1.05833;stroke-miterlimit:4;stroke-dasharray:none"
           id="path2899"
           cx="225.55728"
           cy="66.807289"
           r="15.874998" />
        <path
           style="display:inline;fill:#ffffff;fill-opacity:1;stroke:#020000;stroke-width:1.05833;stroke-linecap:butt;stroke-linejoin:round;stroke-miterlimit:4;stroke-dasharray:none;stroke-opacity:1"
           d="M 99.086457,42.068749 C 99.327166,39.628675 115.27541,26.878455 122.10521,29.633333 l 73.68645,42.201041 c 3.80546,2.049095 6.91529,23.635317 5.02709,25.135416 C 182.12976,111.8174 92.999085,103.77657 99.086457,42.068749 Z"
           id="path3474"
           sodipodi:nodetypes="sccss" />
        <path
           style="display:inline;fill:#828282;fill-opacity:1;stroke:#000000;stroke-width:1.05833;stroke-linecap:round;stroke-linejoin:round;stroke-miterlimit:4;stroke-dasharray:none;stroke-opacity:1"
           d="M 224.76353,58.340625 C 223.39478,37.507757 206.5384,7.9606665 179.65208,3.175 176.57272,2.6268844 155.62422,1.7337254 123.29583,28.707291 c -22.03633,18.386272 38.0394,65.685545 72.76042,42.994791 19.04,-12.442953 1.04443,-12.939807 -0.13229,-28.442708 9.07034,3.217592 18.71104,8.336372 28.83957,15.081251 z"
           id="path3496"
           sodipodi:nodetypes="cssscc" />
        <path
           style="display:inline;fill:none;stroke:#000000;stroke-width:1.05833;stroke-linecap:round;stroke-linejoin:round;stroke-miterlimit:4;stroke-dasharray:none;stroke-opacity:1"
           d="m 195.92396,43.259374 c -7.26876,-2.305926 -22.225,-5.423957 -22.225,-5.423957 l -12.96459,6.879166"
           id="path3472"
           sodipodi:nodetypes="cc" />
        <path
           id="path3486"
           style="display:inline;fill:#000000;fill-opacity:0.1;stroke:none;stroke-width:4;stroke-linecap:butt;stroke-linejoin:miter;stroke-miterlimit:4;stroke-dasharray:none;stroke-opacity:1"
           d="m 659,115 c -32.99212,5.72611 -54.30382,31.93593 -70.57985,54.44225 -21.01267,29.05609 -30.96533,57.27329 -18.94178,83.03458 11.9281,25.55679 35.51059,63.04016 68.61848,77.14336 37.87809,16.1352 86.83403,6.76481 121.20208,1.4345 -3.33503,-25.00915 -10.80448,-54.7454 -19.18945,-59.48438 0.29684,-0.19068 0.59474,-0.37694 0.89062,-0.57031 71.96221,-47.02848 3.94745,-48.90636 -0.5,-107.5 25.40631,9.01257 52.00236,21.98832 79.65039,38.47266 C 802.92357,213.00091 792.50168,232.04544 792.5,252.5 c 2e-4,6.58485 1.08435,13.12475 3.20898,19.35742 0.98521,-6.02763 4.03087,-23.2412 8.6875,-35.39844 C 810.06801,221.65214 826,205.5 826,205.5 790.71223,173.78676 717.41392,104.86168 659,115 Z"
           transform="scale(0.26458333)"
           inkscape:label="shadow"
           sodipodi:nodetypes="sssscccccccscs" />
      </g>
    </g>
  </g>
</svg>
