<?xml version="1.0" encoding="UTF-8" standalone="no"?>
<svg
   xmlns:dc="http://purl.org/dc/elements/1.1/"
   xmlns:cc="http://creativecommons.org/ns#"
   xmlns:rdf="http://www.w3.org/1999/02/22-rdf-syntax-ns#"
   xmlns:svg="http://www.w3.org/2000/svg"
   xmlns="http://www.w3.org/2000/svg"
   xmlns:xlink="http://www.w3.org/1999/xlink"
   xmlns:sodipodi="http://sodipodi.sourceforge.net/DTD/sodipodi-0.dtd"
   xmlns:inkscape="http://www.inkscape.org/namespaces/inkscape"
   width="1000"
   height="1000"
   viewBox="0 0 264.58333 264.58334"
   version="1.1"
   id="svg839"
   inkscape:version="1.0.2 (e86c870879, 2021-01-15)"
   sodipodi:docname="boseph.svg">
  <defs
     id="defs833">
    <inkscape:path-effect
       effect="taper_stroke"
       id="path-effect1599"
       is_visible="true"
       lpeversion="1"
       stroke_width="1"
       attach_start="0.5"
       end_offset="0.5"
       smoothing="0.5"
       jointype="extrapolated"
       miter_limit="100" />
    <inkscape:path-effect
       effect="taper_stroke"
       id="path-effect1589"
       is_visible="true"
       lpeversion="1"
       stroke_width="1"
       attach_start="0.5"
       end_offset="0.5"
       smoothing="0.5"
       jointype="extrapolated"
       miter_limit="100" />
    <inkscape:path-effect
       effect="taper_stroke"
       id="path-effect1568"
       is_visible="true"
       lpeversion="1"
       stroke_width="1"
       attach_start="0.5"
       end_offset="0.5"
       smoothing="0.5"
       jointype="extrapolated"
       miter_limit="100" />
    <inkscape:path-effect
       effect="taper_stroke"
       id="path-effect1566"
       is_visible="true"
       lpeversion="1"
       stroke_width="1"
       attach_start="0.5"
       end_offset="0.5"
       smoothing="0.5"
       jointype="extrapolated"
       miter_limit="100" />
    <inkscape:path-effect
       effect="taper_stroke"
       id="path-effect1564"
       is_visible="true"
       lpeversion="1"
       stroke_width="1"
       attach_start="0.5"
       end_offset="0.5"
       smoothing="0.5"
       jointype="extrapolated"
       miter_limit="100" />
    <inkscape:path-effect
       effect="taper_stroke"
       id="path-effect1562"
       is_visible="true"
       lpeversion="1"
       stroke_width="1"
       attach_start="0.5"
       end_offset="0.5"
       smoothing="0.5"
       jointype="extrapolated"
       miter_limit="100" />
    <inkscape:path-effect
       effect="taper_stroke"
       id="path-effect1560"
       is_visible="true"
       lpeversion="1"
       stroke_width="1"
       attach_start="0.5"
       end_offset="0.5"
       smoothing="0.5"
       jointype="extrapolated"
       miter_limit="100" />
    <inkscape:path-effect
       effect="taper_stroke"
       id="path-effect1365"
       is_visible="true"
       lpeversion="1"
       stroke_width="1"
       attach_start="0.5"
       end_offset="0.5"
       smoothing="0.5"
       jointype="extrapolated"
       miter_limit="100" />
    <inkscape:path-effect
       effect="taper_stroke"
       id="path-effect1361"
       is_visible="true"
       lpeversion="1"
       stroke_width="1"
       attach_start="0.5"
       end_offset="0.5"
       smoothing="0.5"
       jointype="extrapolated"
       miter_limit="100" />
    <linearGradient
       inkscape:collect="always"
       id="linearGradient1335">
      <stop
         style="stop-color:#ff9696;stop-opacity:0.5"
         offset="0"
         id="stop1331" />
      <stop
         style="stop-color:#ff9696;stop-opacity:0;"
         offset="1"
         id="stop1333" />
    </linearGradient>
    <linearGradient
       inkscape:collect="always"
       id="linearGradient1319">
      <stop
         style="stop-color:#ff8ca0;stop-opacity:1"
         offset="0"
         id="stop1315" />
      <stop
         style="stop-color:#f06e82;stop-opacity:1"
         offset="1"
         id="stop1317" />
    </linearGradient>
    <linearGradient
       inkscape:collect="always"
       id="linearGradient1281">
      <stop
         style="stop-color:#78646e;stop-opacity:1"
         offset="0"
         id="stop1277" />
      <stop
         style="stop-color:#64505a;stop-opacity:1"
         offset="1"
         id="stop1279" />
    </linearGradient>
    <inkscape:path-effect
       effect="taper_stroke"
       id="path-effect1240"
       is_visible="true"
       lpeversion="1"
       stroke_width="1"
       attach_start="0.5"
       end_offset="0.5"
       smoothing="0.5"
       jointype="extrapolated"
       miter_limit="100" />
    <inkscape:path-effect
       effect="taper_stroke"
       id="path-effect1238"
       is_visible="true"
       lpeversion="1"
       stroke_width="1"
       attach_start="0.5"
       end_offset="0.5"
       smoothing="0.5"
       jointype="extrapolated"
       miter_limit="100" />
    <inkscape:path-effect
       effect="taper_stroke"
       id="path-effect1236"
       is_visible="true"
       lpeversion="1"
       stroke_width="1"
       attach_start="0.5"
       end_offset="0.5"
       smoothing="0.5"
       jointype="extrapolated"
       miter_limit="100" />
    <inkscape:path-effect
       effect="taper_stroke"
       id="path-effect1234"
       is_visible="true"
       lpeversion="1"
       stroke_width="1"
       attach_start="0.5"
       end_offset="0.5"
       smoothing="0.5"
       jointype="extrapolated"
       miter_limit="100" />
    <inkscape:path-effect
       effect="taper_stroke"
       id="path-effect1232"
       is_visible="true"
       lpeversion="1"
       stroke_width="1"
       attach_start="0.5"
       end_offset="0.5"
       smoothing="0.5"
       jointype="extrapolated"
       miter_limit="100" />
    <inkscape:path-effect
       effect="taper_stroke"
       id="path-effect1230"
       is_visible="true"
       lpeversion="1"
       stroke_width="1"
       attach_start="0.5"
       end_offset="0.5"
       smoothing="0.5"
       jointype="extrapolated"
       miter_limit="100" />
    <inkscape:path-effect
       effect="taper_stroke"
       id="path-effect1228"
       is_visible="true"
       lpeversion="1"
       stroke_width="1"
       attach_start="0.5"
       end_offset="0.5"
       smoothing="0.5"
       jointype="extrapolated"
       miter_limit="100" />
    <inkscape:path-effect
       effect="taper_stroke"
       id="path-effect1226"
       is_visible="true"
       lpeversion="1"
       stroke_width="1"
       attach_start="0.5"
       end_offset="0.5"
       smoothing="0.5"
       jointype="extrapolated"
       miter_limit="100" />
    <inkscape:path-effect
       effect="taper_stroke"
       id="path-effect1224"
       is_visible="true"
       lpeversion="1"
       stroke_width="1"
       attach_start="0.5"
       end_offset="0.5"
       smoothing="0.5"
       jointype="extrapolated"
       miter_limit="100" />
    <inkscape:path-effect
       effect="taper_stroke"
       id="path-effect1222"
       is_visible="true"
       lpeversion="1"
       stroke_width="1"
       attach_start="0.5"
       end_offset="0.5"
       smoothing="0.5"
       jointype="extrapolated"
       miter_limit="100" />
    <inkscape:path-effect
       effect="taper_stroke"
       id="path-effect1220"
       is_visible="true"
       lpeversion="1"
       stroke_width="1"
       attach_start="0.5"
       end_offset="0.5"
       smoothing="0.5"
       jointype="extrapolated"
       miter_limit="100" />
    <inkscape:path-effect
       effect="taper_stroke"
       id="path-effect1112"
       is_visible="true"
       lpeversion="1"
       stroke_width="1"
       attach_start="0.5"
       end_offset="0.5"
       smoothing="0.5"
       jointype="extrapolated"
       miter_limit="100" />
    <inkscape:path-effect
       effect="taper_stroke"
       id="path-effect1108"
       is_visible="true"
       lpeversion="1"
       stroke_width="1"
       attach_start="0.5"
       end_offset="0.5"
       smoothing="0.5"
       jointype="extrapolated"
       miter_limit="100" />
    <inkscape:path-effect
       effect="taper_stroke"
       id="path-effect1098"
       is_visible="true"
       lpeversion="1"
       stroke_width="1"
       attach_start="0"
       end_offset="0.06923738"
       smoothing="0.5"
       jointype="extrapolated"
       miter_limit="100" />
    <inkscape:path-effect
       effect="taper_stroke"
       id="path-effect1096"
       is_visible="true"
       lpeversion="1"
       stroke_width="1"
       attach_start="0.5"
       end_offset="0.2"
       smoothing="0.5"
       jointype="extrapolated"
       miter_limit="100" />
    <inkscape:path-effect
       effect="taper_stroke"
       id="path-effect1090"
       is_visible="true"
       lpeversion="1"
       stroke_width="1"
       attach_start="0.5"
       end_offset="0.5"
       smoothing="0.5"
       jointype="extrapolated"
       miter_limit="100" />
    <inkscape:path-effect
       effect="taper_stroke"
       id="path-effect1080"
       is_visible="true"
       lpeversion="1"
       stroke_width="1"
       attach_start="0.5"
       end_offset="0.5"
       smoothing="0.5"
       jointype="extrapolated"
       miter_limit="100" />
    <inkscape:path-effect
       effect="taper_stroke"
       id="path-effect1070"
       is_visible="true"
       lpeversion="1"
       stroke_width="1"
       attach_start="0.5"
       end_offset="0.5"
       smoothing="0.5"
       jointype="extrapolated"
       miter_limit="100" />
    <inkscape:path-effect
       effect="taper_stroke"
       id="path-effect1066"
       is_visible="true"
       lpeversion="1"
       stroke_width="1"
       attach_start="0.5"
       end_offset="0.5"
       smoothing="0.5"
       jointype="extrapolated"
       miter_limit="100" />
    <inkscape:path-effect
       effect="taper_stroke"
       id="path-effect1062"
       is_visible="true"
       lpeversion="1"
       stroke_width="1"
       attach_start="0.5"
       end_offset="0.5"
       smoothing="0.5"
       jointype="extrapolated"
       miter_limit="100" />
    <inkscape:path-effect
       effect="taper_stroke"
       id="path-effect1052"
       is_visible="true"
       lpeversion="1"
       stroke_width="1"
       attach_start="0.5"
       end_offset="0.5"
       smoothing="0.5"
       jointype="extrapolated"
       miter_limit="100" />
    <inkscape:path-effect
       effect="taper_stroke"
       id="path-effect1046"
       is_visible="true"
       lpeversion="1"
       stroke_width="1"
       attach_start="0.5"
       end_offset="0.5"
       smoothing="0.5"
       jointype="extrapolated"
       miter_limit="100" />
    <inkscape:path-effect
       effect="taper_stroke"
       id="path-effect1038"
       is_visible="true"
       lpeversion="1"
       stroke_width="1"
       attach_start="0.5"
       end_offset="0.5"
       smoothing="0.5"
       jointype="extrapolated"
       miter_limit="100" />
    <inkscape:path-effect
       effect="taper_stroke"
       id="path-effect1029"
       is_visible="true"
       lpeversion="1"
       stroke_width="1"
       attach_start="0.5"
       end_offset="0.5"
       smoothing="0.5"
       jointype="extrapolated"
       miter_limit="100" />
    <inkscape:path-effect
       effect="taper_stroke"
       id="path-effect958"
       is_visible="true"
       lpeversion="1"
       stroke_width="1"
       attach_start="0.5"
       end_offset="0.5"
       smoothing="0.5"
       jointype="extrapolated"
       miter_limit="100" />
    <inkscape:path-effect
       effect="taper_stroke"
       id="path-effect952"
       is_visible="true"
       lpeversion="1"
       stroke_width="1"
       attach_start="0.5"
       end_offset="0.5"
       smoothing="0.5"
       jointype="extrapolated"
       miter_limit="100" />
    <inkscape:path-effect
       effect="taper_stroke"
       id="path-effect944"
       is_visible="true"
       lpeversion="1"
       stroke_width="1"
       attach_start="0.5"
       end_offset="0.5"
       smoothing="0.5"
       jointype="extrapolated"
       miter_limit="100" />
    <inkscape:path-effect
       effect="taper_stroke"
       id="path-effect934"
       is_visible="true"
       lpeversion="1"
       stroke_width="1"
       attach_start="0.5"
       end_offset="0.5"
       smoothing="0.5"
       jointype="extrapolated"
       miter_limit="100" />
    <inkscape:path-effect
       effect="taper_stroke"
       id="path-effect924"
       is_visible="true"
       lpeversion="1"
       stroke_width="1"
       attach_start="0.5"
       end_offset="0.5"
       smoothing="0.5"
       jointype="extrapolated"
       miter_limit="100" />
    <inkscape:path-effect
       effect="powerstroke"
       id="path-effect915"
       is_visible="true"
       lpeversion="1"
       offset_points="0,0.95728"
       sort_points="true"
       interpolator_type="CubicBezierJohan"
       interpolator_beta="0.2"
       start_linecap_type="zerowidth"
       linejoin_type="extrp_arc"
       miter_limit="4"
       scale_width="1"
       end_linecap_type="zerowidth" />
    <inkscape:path-effect
       effect="powerstroke"
       id="path-effect911"
       is_visible="true"
       lpeversion="1"
       offset_points="0,0.943621"
       sort_points="true"
       interpolator_type="CubicBezierJohan"
       interpolator_beta="0.2"
       start_linecap_type="zerowidth"
       linejoin_type="extrp_arc"
       miter_limit="4"
       scale_width="1"
       end_linecap_type="zerowidth" />
    <radialGradient
       inkscape:collect="always"
       xlink:href="#linearGradient1281"
       id="radialGradient1283"
       cx="82.798361"
       cy="163.36352"
       fx="82.798361"
       fy="163.36352"
       r="9.8889769"
       gradientTransform="matrix(1,0,0,1.213003,0,-34.796916)"
       gradientUnits="userSpaceOnUse" />
    <radialGradient
       inkscape:collect="always"
       xlink:href="#linearGradient1319"
       id="radialGradient1321"
       cx="147.56854"
       cy="161.72423"
       fx="147.56854"
       fy="161.72423"
       r="12.133508"
       gradientTransform="matrix(1,0,0,1.0703206,0,-11.372538)"
       gradientUnits="userSpaceOnUse" />
    <radialGradient
       inkscape:collect="always"
       xlink:href="#linearGradient1335"
       id="radialGradient1341"
       gradientUnits="userSpaceOnUse"
       gradientTransform="matrix(1.5771897,0,0,0.76998918,-59.132877,25.307569)"
       cx="108.55818"
       cy="165.99442"
       fx="108.55818"
       fy="165.99442"
       r="25.771465" />
  </defs>
  <sodipodi:namedview
     id="base"
     pagecolor="#ffffff"
     bordercolor="#666666"
     borderopacity="1.0"
     inkscape:pageopacity="0.0"
     inkscape:pageshadow="2"
     inkscape:zoom="0.70710678"
     inkscape:cx="303.82018"
     inkscape:cy="581.28652"
     inkscape:document-units="px"
     inkscape:current-layer="g1542"
     inkscape:document-rotation="0"
     showgrid="false"
     units="px"
     inkscape:pagecheckerboard="true"
     inkscape:snap-global="true"
     inkscape:object-paths="true"
     inkscape:snap-intersection-paths="true"
     inkscape:window-width="2560"
     inkscape:window-height="1365"
     inkscape:window-x="3840"
     inkscape:window-y="720"
     inkscape:window-maximized="1"
     inkscape:snap-midpoints="true"
     inkscape:snap-smooth-nodes="true" />
  <metadata
     id="metadata836">
    <rdf:RDF>
      <cc:Work
         rdf:about="">
        <dc:format>image/svg+xml</dc:format>
        <dc:type
           rdf:resource="http://purl.org/dc/dcmitype/StillImage" />
        <dc:title />
      </cc:Work>
    </rdf:RDF>
  </metadata>
  <g
     inkscape:label="Layer 1"
     id="layer1"
     style="display:inline"
     inkscape:groupmode="layer">
    <path
       style="fill:#f0e6e6;fill-opacity:1;stroke:#000000;stroke-width:1;stroke-linecap:round;stroke-linejoin:round;stroke-miterlimit:4;stroke-dasharray:none;stroke-opacity:1"
       d="m 169.32977,265.6485 c 21.2767,-17.35554 -4.63552,-55.06108 11.38064,-75.74994 3.95653,-5.11084 12.82591,-1.74607 7.73907,6.28386 -11.29148,17.82438 8.86363,52.57828 -7.07761,69.71771"
       id="path1605"
       sodipodi:nodetypes="cssc"
       inkscape:label="tail" />
    <g
       id="g1603"
       inkscape:label="back hair"
       transform="translate(0,-13.56602)">
      <path
         style="display:inline;fill:#f0e6e6;fill-opacity:1;stroke:none;stroke-width:0.264583px;stroke-linecap:butt;stroke-linejoin:miter;stroke-opacity:1"
         d="m 163.90937,170.92083 c 3.12786,8.36716 6.94485,16.75478 17.33021,25.79688 -3.96309,-7.58959 4.08887,-13.60166 6.52829,-21.7912 3.18091,-10.67886 3.56112,-20.06913 5.90713,-29.80255"
         id="path1595"
         sodipodi:nodetypes="ccsc" />
      <path
         style="fill:#000000;fill-rule:nonzero;stroke:none;stroke-width:0.264583px;stroke-linecap:butt;stroke-linejoin:miter;stroke-opacity:1"
         d="m 170.27813,183.30312 c -3.64169,-5.88148 -6.36876,-12.38229 -6.36876,-12.38229 0,0 1.77227,6.84751 5.51833,12.90838 2.67036,4.31665 6.25383,8.71229 11.48356,13.2656 l 1.99737,1.73903 -1.22584,-2.34756 c -3.81828,-7.31227 4.07072,-13.04577 6.56427,-21.41703 1.59973,-5.37056 2.49439,-10.41501 3.28115,-15.31936 0.58662,-3.65437 1.02886,-7.32123 1.42529,-10.06195 0.39626,-2.73954 0.7215,-4.56398 0.7215,-4.56398 0,0 -0.56801,1.76423 -1.21245,4.47016 -0.69398,2.91391 -1.30314,6.13889 -1.92172,9.99738 -0.78507,4.89386 -1.67097,9.88397 -3.25215,15.19227 -2.38562,8.00891 -10.59934,14.30013 -6.49231,22.16537 l 0.77153,-0.60853 c -5.15563,-4.48879 -8.67334,-8.80801 -11.28977,-13.03749 z"
         id="path1597"
         sodipodi:nodetypes="ccsc"
         inkscape:path-effect="#path-effect1599"
         inkscape:original-d="m 163.90937,170.92083 c 3.12786,8.36716 6.94485,16.75478 17.33021,25.79688 -3.96309,-7.58959 4.08887,-13.60166 6.52829,-21.7912 3.18091,-10.67886 3.56112,-20.06913 5.90713,-29.80255" />
    </g>
    <path
       id="path1267"
       style="display:inline;opacity:1;fill:#fff5f0;fill-opacity:1;stroke:#000000;stroke-width:1;stroke-linecap:round;stroke-linejoin:round;stroke-miterlimit:4;stroke-dasharray:none;stroke-opacity:1"
       d="m 125.94167,49.669395 a 72.760413,66.145835 0 0 0 -72.760421,66.145835 72.760413,66.145835 0 0 0 11.346596,35.4707 56.223955,65.484374 0 0 0 55.989865,59.51472 56.223955,65.484374 0 0 0 53.49492,-45.3316 72.760413,66.145835 0 0 0 24.68945,-49.65382 72.760413,66.145835 0 0 0 -72.76041,-66.145835 z"
       inkscape:label="skin" />
    <ellipse
       style="display:inline;opacity:1;fill:url(#radialGradient1341);fill-opacity:1;stroke:none;stroke-width:1;stroke-linecap:round;stroke-linejoin:round;stroke-miterlimit:4;stroke-dasharray:none;stroke-opacity:1"
       id="ellipse1339"
       cx="112.08399"
       cy="153.12149"
       rx="40.646492"
       ry="19.84375"
       inkscape:label="blush" />
    <g
       id="g1287"
       inkscape:label="left eye"
       transform="translate(0,-13.56602)">
      <path
         id="path1272"
         style="display:inline;opacity:1;fill:url(#radialGradient1283);fill-opacity:1;stroke:#000000;stroke-width:1;stroke-linecap:round;stroke-linejoin:round;stroke-miterlimit:4;stroke-dasharray:none;stroke-opacity:1"
         d="m 92.184596,164.67242 c -0.12985,6.32346 -3.985821,10.18706 -8.268229,10.18646 -5.806644,-8.1e-4 -10.791545,-4.98121 -10.49449,-12.14011 0.254444,-6.13199 3.38177,-10.98289 9.326563,-10.84792 5.288515,0.12007 9.562157,6.66559 9.436156,12.80157 z"
         sodipodi:nodetypes="sssss" />
      <ellipse
         style="opacity:1;fill:#ffffff;fill-opacity:0.5;stroke:none;stroke-width:1;stroke-linecap:round;stroke-linejoin:round;stroke-miterlimit:4;stroke-dasharray:none;stroke-opacity:1"
         id="path1275"
         cx="88.358109"
         cy="167.047"
         rx="2.6458335"
         ry="2.6458333" />
    </g>
    <g
       id="g1325"
       inkscape:label="right eye"
       transform="translate(0,-13.56602)">
      <path
         id="path1297"
         style="display:inline;fill:url(#radialGradient1321);fill-opacity:1;stroke:#000000;stroke-width:1;stroke-linecap:round;stroke-linejoin:round;stroke-miterlimit:4;stroke-dasharray:none;stroke-opacity:1"
         d="m 159.19778,163.55264 c -0.12985,6.32346 -4.64064,10.46769 -11.3552,10.65418 -5.8044,0.16121 -12.1947,-4.41994 -11.89765,-11.57884 0.25445,-6.13199 3.85168,-12.98004 11.66518,-13.37362 9.0258,-0.45465 11.71367,8.1623 11.58767,14.29828 z"
         sodipodi:nodetypes="sssss" />
      <ellipse
         style="display:inline;fill:#ffffff;fill-opacity:0.5;stroke:none;stroke-width:1;stroke-linecap:round;stroke-linejoin:round;stroke-miterlimit:4;stroke-dasharray:none;stroke-opacity:1"
         id="ellipse1299"
         cx="154.20728"
         cy="167.39847"
         rx="2.6458335"
         ry="2.6458333" />
    </g>
    <path
       style="display:inline;opacity:1;fill:#000000;fill-opacity:1;stroke:none;stroke-width:0.264582px;stroke-linecap:butt;stroke-linejoin:miter;stroke-opacity:1"
       d="m 134.38095,139.12793 h 26.45833 c 0,0 -3.39396,-3.96875 -13.22917,-3.96875 -9.83521,0 -13.22916,3.96875 -13.22916,3.96875 z"
       id="path1355"
       sodipodi:nodetypes="cczc"
       inkscape:label="right eyelashes" />
    <path
       style="display:inline;opacity:1;fill:#000000;fill-opacity:1;stroke:none;stroke-width:0.264583px;stroke-linecap:butt;stroke-linejoin:miter;stroke-opacity:1"
       d="m 70.842192,141.7444 h 23.812499 c 0,0 -3.054563,-3.96875 -11.906251,-3.96875 -8.851687,0 -11.906248,3.96875 -11.906248,3.96875 z"
       id="path1349"
       sodipodi:nodetypes="cczc"
       inkscape:label="left eyelashes" />
    <path
       style="fill:#000000;fill-rule:nonzero;stroke:none;stroke-width:0.264583px;stroke-linecap:butt;stroke-linejoin:miter;stroke-opacity:1"
       d="m 147.61011,119.28415 c 3.34024,0.01 6.53162,0.52227 9.05365,1.00376 2.47504,0.47252 4.11627,0.85012 4.11627,0.85012 0,0 -1.56595,-0.61752 -3.99796,-1.33711 -2.45907,-0.7276 -5.71076,-1.49814 -9.16776,-1.51676 -3.49576,-0.0105 -6.77368,0.75261 -9.2611,1.49002 -2.45556,0.72796 -4.03151,1.36385 -4.03151,1.36385 0,0 1.65331,-0.39649 4.15032,-0.87698 2.55044,-0.49077 5.76046,-0.99527 9.13809,-0.9769 z"
       id="path1363"
       sodipodi:nodetypes="cc"
       inkscape:path-effect="#path-effect1365"
       inkscape:original-d="m 160.78003,121.13803 c -10.60785,-3.07218 -15.68689,-3.20481 -26.45833,0"
       inkscape:label="right eyebrow" />
    <path
       style="fill:#000000;fill-rule:nonzero;stroke:none;stroke-width:0.264583px;stroke-linecap:butt;stroke-linejoin:miter;stroke-opacity:1"
       d="m 82.74844,122.37158 c 3.340245,0.01 6.531622,0.52227 9.05365,1.00376 2.47505,0.47252 4.116277,0.85012 4.116277,0.85012 0,0 -1.565947,-0.61752 -3.997957,-1.33711 -2.459077,-0.7276 -5.71077,-1.49814 -9.167764,-1.51676 -3.495762,-0.0105 -6.773679,0.75261 -9.261103,1.49002 -2.45556,0.72796 -4.03151,1.36385 -4.03151,1.36385 0,0 1.653313,-0.39649 4.150321,-0.87698 2.550439,-0.49077 5.76046,-0.99527 9.138086,-0.9769 z"
       id="path1357"
       sodipodi:nodetypes="cc"
       inkscape:path-effect="#path-effect1361"
       inkscape:original-d="m 95.918367,124.22546 c -10.607859,-3.07218 -15.686894,-3.20481 -26.458334,0"
       inkscape:label="left eyebrow" />
    <g
       id="g1542"
       inkscape:label="mask"
       transform="translate(0,-13.56602)">
      <path
         style="display:inline;opacity:1;fill:#373737;fill-opacity:1;stroke:#000000;stroke-width:1;stroke-linecap:round;stroke-linejoin:round;stroke-miterlimit:4;stroke-dasharray:none;stroke-opacity:1"
         d="m 67.935664,178.75863 c 18.009722,7.33109 31.544524,5.20413 44.461096,1.12595 4.28368,-1.3525 7.45302,-1.22856 11.82854,-0.52673 38.77359,6.21921 39.14736,-4.35772 48.89266,-0.94555 5.79487,3.92353 -1.92572,13.46659 -3.28483,14.74407 -1.09659,2.86432 -3.02685,8.02183 -7.17998,10.57393 0.93027,3.02916 0.8947,5.76626 0.47575,8.17663 9.77605,2.81215 0.0418,7.01939 0.92604,10.18646 0.93069,3.33345 4.61977,1.37173 5.64973,2.52075 2.22776,2.48529 0.95613,7.00116 3.03475,10.60684 1.60477,2.78372 4.69101,6.00985 6.39677,9.62658 -20.11462,36.846 -106.081636,38.94735 -124.524496,4.81065 -2.026434,-3.75082 8.277148,-6.98714 10.224517,-12.61586 -1.061129,-2.34238 0.04931,-4.41539 1.058333,-5.55625 -1.284593,-0.99389 -3.48927,-2.73348 -2.028392,-4.10104 4.263562,-3.99122 5.777699,-6.9552 9.306796,-9.79857 2.520362,-2.03064 4.583335,-1.3651 5.285985,-4.93183 0.872267,-4.67676 -8.278893,-5.23418 -7.735743,-9.04903 1.043178,-7.32683 -10.477875,-27.97745 -2.787526,-24.847 z"
         id="path1367"
         sodipodi:nodetypes="sssccccssscsccsscss" />
      <path
         id="path1531"
         style="display:inline;fill:#d2d2d2;fill-opacity:1;stroke-width:0.999995"
         d="m 110.27407,228.98935 c -2.09002,0.24962 -5.30159,-3.48653 -6.16184,-2.25881 -1.48414,2.16895 -6.771079,-0.1202 -8.244544,-1.84424 3.34295,-2.6427 -2.165853,-5.5175 -4.391789,-6.71497 -1.826656,-1.27852 -6.497541,-1.78241 -6.181187,-4.12495 3.426034,2.28936 -0.742798,-2.12462 -2.196366,-2.38316 -2.160854,-2.61128 -6.225688,-4.83671 -8.057681,-6.6495 2.382147,1.23582 2.457758,0.73799 0.376809,-0.70943 -4.320777,-0.0601 0.619014,-5.44013 -1.095419,-7.85817 -2.10794,-3.56625 3.300897,-1.85888 1.327835,1.44712 -0.471266,3.83027 4.227941,5.65045 5.774323,8.88922 2.135941,3.08839 5.824819,4.53309 9.035809,6.17522 1.614552,-0.55985 7.267897,2.75623 3.665091,-0.39434 4.65239,-3.40296 7.986409,3.27489 12.758859,2.70506 3.26193,-0.17279 5.8439,-0.90746 8.29281,2.02746 2.96097,1.59316 -2.17352,-2.84356 1.57671,-1.51547 2.04491,0.59518 3.51124,3.62237 3.31363,0.0817 2.54752,-1.29109 5.4594,1.47085 7.74036,-1.20531 1.79752,0.25724 1.00713,3.69167 2.11753,0.55209 0.93891,-2.76106 4.16036,-1.90165 4.49589,0.67931 -1.4083,-2.12268 1.89681,-5.10319 3.00693,-3.62059 -2.0113,2.05512 1.1343,1.46378 1.21639,-0.42744 4.26604,-1.58317 9.00738,-1.32371 13.44887,-2.27787 2.49407,-1.01967 2.78389,1.23769 1.22705,2.30228 -0.41987,3.064 -5.42021,1.75616 -7.01894,4.35996 3.11871,-0.39511 7.06224,-2.95416 9.4582,-2.51163 -3.99053,1.76681 -7.98047,3.644 -11.4529,6.40182 -4.80637,0.17377 -7.03018,4.14544 -10.38677,6.67406 -3.55548,1.24781 -7.46487,0.86291 -10.73875,1.12304 -3.6565,2.64165 -8.76555,2.1862 -12.90691,1.07752 z m -4.00296,-5.94544 c -3.71567,-2.78102 -0.67586,3.56566 0,0 z m -6.622182,-2.87284 c -1.297853,-1.59452 -4.376005,-0.96519 -1.403537,0.65812 0.587968,0.47865 1.494347,0.12442 1.403537,-0.65812 z m 11.105092,-2.81473 c -1.52443,-2.91407 -1.36708,1.50292 0.2045,1.18496 0.10384,-0.403 -0.0905,-0.81155 -0.2045,-1.18496 z m -4.72894,0.24999 c -0.88012,-1.75429 -3.90982,-2.45966 -1.1961,-0.24699 0.2991,0.31494 1.29833,1.47962 1.1961,0.24699 z m 19.76621,-0.0224 c -1.82761,-2.3083 -0.6125,2.00833 0,0 z m -36.663096,-1.91285 c -2.057451,-1.81767 -1.21239,0.79561 0.229217,0.44529 z m 50.371906,-0.63765 c -0.21735,-2.26651 -1.80196,2.00876 0,0 z m -26.6596,-0.40747 c -4.86048,-1.95433 2.28105,-6.27222 2.63932,-1.90592 0.55872,2.02877 -0.82716,3.24854 -2.63932,1.90592 z m 4.41599,0.22094 c -3.97538,-3.30997 3.938,-5.93426 3.31997,-1.2191 -0.42047,1.48942 -2.04946,2.52957 -3.31997,1.2191 z m 5.48857,-0.16842 c -4.14148,-2.64654 1.83932,-6.9258 4.11874,-3.25794 0.44461,2.19748 -1.7519,5.90537 -4.11874,3.25794 z m -15.92294,-0.30253 c -2.2748,-1.05006 -1.85324,-4.81498 0.96269,-2.46739 3.5705,1.17111 2.29843,4.30823 -0.96269,2.46739 z m -4.43613,-1.24818 c -0.73914,-0.42693 -2.430555,-3.01789 -0.89166,-2.64493 0.71567,0.98211 2.24277,-1.78252 2.94393,1.05002 1.29255,1.83637 -1.12015,4.4571 -2.05227,1.59491 z m 25.56303,-0.28876 c -2.10832,-3.90838 5.86801,-4.77925 3.13402,-0.41404 -0.51515,1.19349 -2.57077,2.11856 -3.13402,0.41404 z m 31.30207,-0.38065 c -0.94981,-3.94355 4.97407,0.0563 0,0 z m -26.64862,-0.39056 c 1.67714,-1.88081 2.24498,-4.27061 1.02207,-6.68228 1.84362,-5.04024 8.57428,1.06406 2.9947,2.81568 -1.6437,0.92465 -1.05212,5.65472 -4.01677,3.8666 z m -25.78035,-1.49071 c -5.46022,-2.23588 1.44721,-10.2057 2.02821,-3.30006 -0.39562,2.02749 1.58157,6.53859 -2.02821,3.30006 z m -8.660987,0.20555 c -1.805256,-3.22093 2.455197,0.68485 0,0 z m 39.107297,-0.47821 c 2.66444,-4.04575 1.6564,3.20697 0,0 z m -41.764042,-0.37194 c 0.896558,-2.26681 2.581886,2.04503 0,0 z m 44.952152,0 c 2.20743,-2.60386 2.68682,2.50894 0,0 z m 15.30286,0.0376 c 1.85522,-2.89422 1.73118,-6.79654 3.76673,-9.7943 1.62459,-1.80291 1.03508,-4.52639 1.25794,-5.87973 2.00138,-1.40493 3.54865,2.94242 3.25295,-0.67985 -0.0359,-2.16245 3.75872,-3.10325 1.77462,-0.16681 -1.3759,3.20411 -2.64873,6.47453 -4.01315,9.61688 -2.58423,1.26077 -1.86686,7.0544 -3.2307,6.9647 0.26636,-2.56621 -2.00164,2.63207 -2.80839,-0.0609 z m -38.77618,-0.74515 c -5.54033,-2.97642 4.69077,-7.84038 3.59245,-1.8381 0.007,1.89 -2.09272,2.60375 -3.59245,1.8381 z m -15.41565,-0.87949 c -1.749932,-1.22382 -8.008583,-1.36457 -6.52799,-3.86031 1.504142,1.87552 4.180298,-1.66613 5.03741,1.80257 -0.627572,-5.24851 6.14246,-1.2413 3.83256,2.25795 -0.38052,1.35132 -1.83832,0.6093 -2.34198,-0.20021 z m 9.28521,-0.0526 c -3.46358,-3.12965 6.08365,-5.12676 3.99732,-0.17674 -0.56261,1.93567 -2.98613,1.35589 -3.99732,0.17674 z m 11.24031,0.23682 c -3.50579,-3.46201 2.96468,-6.58735 5.36234,-3.39644 0.10383,1.80177 -3.53421,5.61086 -5.36234,3.39644 z m 5.47333,-0.86034 c -0.99848,-5.6821 8.75193,-2.44663 2.44437,0.22635 -0.78888,0.1325 -1.75375,0.29126 -2.44437,-0.22635 z m 12.57087,-2.04082 c -0.59944,-2.23666 1.46685,-2.60091 1.37312,-0.424 -0.56315,0.95396 -1.20636,4.38609 -1.37312,0.424 z m -31.16382,-1.30664 c -1.64662,-0.48558 -3.64807,-2.70634 -3.58988,-0.27695 -3.38947,-1.41784 -6.865226,-0.19909 -10.541871,-0.11761 -4.104896,0.67009 -2.442968,-3.31562 -1.122427,-5.20738 -1.532261,-3.54098 -6.478283,-3.95271 -9.647157,-5.57173 -3.546529,-1.03868 -8.614843,-2.7423 -11.165546,1.00221 -2.237967,-0.79939 -0.734761,-5.59993 -2.404721,-7.69091 -1.039589,-2.84461 -0.280842,-8.22569 3.565402,-4.53832 3.108054,2.25748 7.075395,2.29961 10.716645,2.72802 1.556548,0.50151 7.220261,4.86251 3.621996,1.25941 -2.131041,-1.2746 0.877422,-0.68044 1.911989,-0.80402 7.038686,-0.0983 14.34832,0.56636 21.02515,-2.09292 6.51342,-1.76811 13.53571,-1.90284 20.01465,0.073 7.35601,0.88252 14.80462,1.25583 22.20735,0.91559 3.77822,-1.50537 8.41954,-0.70521 11.76064,-3.50683 4.67052,-3.32602 4.40722,4.06398 2.45946,6.49179 -1.33452,2.46492 -4.6273,8.17845 -7.65831,5.10053 -4.34999,-1.68961 -9.15118,0.94247 -12.39254,3.82691 -5.26732,0.3153 0.59872,6.7176 -4.17015,7.49565 -1.84662,0.16408 -1.59908,-4.71026 -3.10761,-1.41554 -0.85863,2.94125 -4.80597,-1.11885 -6.73309,1.61678 -1.49309,0.42411 -0.70273,-2.49454 -2.56404,-0.21377 -2.15315,1.18439 -4.69346,-4.83332 -3.7359,-0.38494 -3.33741,0.76473 -7.02957,0.27527 -10.49555,0.80618 -2.64482,0.14586 -6.03594,1.312 -6.86312,-0.0359 -0.45234,0.30379 -0.48035,1.6779 -1.09137,0.54066 z m 11.50153,-2.83788 c -1.03175,0.31273 0.54331,3.45575 0,0 z m -23.383574,-1.31624 c -0.475372,-0.90793 -0.467866,1.82699 -1.185931,2.36467 0.844116,-0.15034 2.367855,-1.59991 1.185931,-2.36467 z m 14.991044,2.11326 c -0.21734,-2.26654 -1.80196,2.00876 0,0 z m 22.10528,-2.06051 c -1.51637,0.10705 1.57859,3.28564 0,0 z m -7.16252,-4.6214 c 4.3175,-2.2948 -7.56364,0.17404 -2.27831,2.25645 0.67884,-0.79127 1.06219,-1.98332 2.27831,-2.25645 z m 5.77986,1.89976 c -1.59293,-3.41578 -1.24665,3.28503 0,0 z m -32.77954,-1.42995 c -2.788499,-0.20389 -1.486752,3.60303 0,0 z m 14.9262,-0.33326 c 2.45154,-3.1113 6.6229,0.009 9.84496,-1.00773 5.43816,-0.0268 2.18424,-5.44279 -0.78633,-6.75149 -1.75552,-2.15097 -3.95648,-7.94312 -7.26715,-3.82323 -2.22117,3.21798 -5.6346,5.32531 -8.17641,8.18937 -1.39091,3.08695 8.37107,2.10128 2.96745,3.17043 -2.01034,-0.8137 -4.07263,-0.50601 -1.04585,0.48736 1.82117,1.11093 2.94832,2.34833 4.46333,-0.26471 z m 24.79189,0.0286 c -1.79157,-3.04662 -2.06509,3.64088 0.33105,1.32117 0.0768,-0.46443 -0.12832,-0.91939 -0.33105,-1.32117 z M 99.160639,192.0168 c 0.750439,-0.76528 3.123651,-2.74375 0.929561,-1.30768 -2.075966,1.24075 -4.22759,2.36204 -6.498668,3.20209 2.102721,0.23567 4.086454,-0.25909 5.569107,-1.89441 z m 52.306271,-0.57524 c 1.40572,-1.95114 4.92773,-0.86016 6.12894,-2.25961 -2.29623,-0.0587 -8.72297,1.32086 -7.59033,3.47108 0.59267,-0.26263 1.04319,-0.73533 1.46139,-1.21147 z m -10.06458,0.0541 c 1.24667,-1.17758 -4.61928,-1.42131 -5.33542,-1.55291 1.57302,0.91371 3.44085,2.68384 5.33542,1.55291 z m -61.519616,-1.35891 c -1.551705,-0.39482 -6.61238,-1.12137 -6.352334,0.0728 1.466328,0.18468 6.608707,0.88189 6.352334,-0.0728 z m 28.411586,-4.09463 c 3.11414,-2.59716 -6.75696,2.00058 -1.25977,0.65383 l 0.6756,-0.29229 0.58417,-0.36152 z m 26.10485,-0.33909 c -2.57344,-1.66047 -1.89425,0.63057 0.23184,0.41242 z m 18.63683,-1.02311 c -2.19418,-0.71646 -3.19464,2.64507 -0.5536,0.69528 0.13479,-0.19631 0.66465,-0.35113 0.5536,-0.69528 z m -15.44874,0.38549 c -1.71171,-2.05863 -1.53567,1.32912 0.091,0.45032 z" />
      <g
         id="g1575"
         inkscape:label="detail">
        <path
           style="fill:#000000;fill-rule:nonzero;stroke:none;stroke-width:0.264583px;stroke-linecap:butt;stroke-linejoin:miter;stroke-opacity:1"
           d="m 82.134521,231.56286 c -1.79535,-0.16051 -3.393756,-0.51519 -4.779018,-1.23482 0,0 -10e-7,0 -10e-7,0 -2.538655,-1.30982 -3.27217,-3.44783 -3.27217,-3.44783 0,0 0.25128,2.32275 2.911802,4.06247 0,0 0,0 0,0 1.415053,0.92182 3.154873,1.45842 5.05347,1.61648 2.604334,0.23374 4.936618,-0.1456 6.778707,-0.82352 1.752314,-0.64489 2.718521,-1.41585 2.718521,-1.41585 0,0 -1.103593,0.55451 -2.858736,0.93684 -1.893355,0.41243 -4.028244,0.51465 -6.552575,0.30623 z"
           id="path1544"
           sodipodi:nodetypes="cc"
           inkscape:path-effect="#path-effect1568"
           inkscape:original-d="m 74.083332,226.88021 c 2.256367,6.82608 13.278081,5.84286 17.4625,3.43958" />
        <path
           style="fill:#000000;fill-rule:nonzero;stroke:none;stroke-width:0.264583px;stroke-linecap:butt;stroke-linejoin:miter;stroke-opacity:1"
           d="m 101.37381,247.44236 c -8.422558,-1.45721 -15.085054,-2.99373 -21.271612,-5.09665 -5.640727,-1.91738 -9.193866,-3.75769 -9.193866,-3.75769 0,0 3.430624,2.06022 9.023282,4.2269 6.016259,2.33079 12.924364,4.17565 21.272116,5.61287 7.97039,1.37969 14.68848,1.98526 20.85821,1.83958 5.7054,-0.13471 9.43598,-0.89758 9.43598,-0.89758 0,0 -3.77249,0.51461 -9.43679,0.39839 -6.26554,-0.12856 -12.61811,-0.93732 -20.68732,-2.32582 z"
           id="path1546"
           sodipodi:nodetypes="cc"
           inkscape:path-effect="#path-effect1566"
           inkscape:original-d="m 70.908332,238.58802 c 15.856538,8.31651 44.961438,13.01504 60.589588,10.78177" />
        <path
           style="fill:#000000;fill-rule:nonzero;stroke:none;stroke-width:0.264583px;stroke-linecap:butt;stroke-linejoin:miter;stroke-opacity:1"
           d="m 122.96634,251.93076 c -11.13807,1.04232 -21.08786,0.99002 -29.577508,0.46236 -8.073255,-0.50177 -13.418521,-1.30354 -13.418521,-1.30354 0,0 5.30203,1.04907 13.379787,1.80211 8.423182,0.78524 18.567642,1.0772 29.709412,0.0347 9.39122,-0.87596 17.31652,-2.45579 24.16273,-4.58218 6.40521,-1.98942 10.40328,-4.00152 10.40328,-4.00152 0,0 -4.10473,1.78404 -10.54245,3.522 -6.98237,1.885 -14.67977,3.18016 -24.11673,4.06605 z"
           id="path1548"
           sodipodi:nodetypes="cc"
           inkscape:path-effect="#path-effect1564"
           inkscape:original-d="m 79.970311,251.08958 c 29.569279,4.56183 59.325959,1.2578 77.655209,-6.74687" />
        <path
           style="fill:#000000;fill-rule:nonzero;stroke:none;stroke-width:0.264583px;stroke-linecap:butt;stroke-linejoin:miter;stroke-opacity:1"
           d="m 141.05395,239.24395 c -5.30497,0.78677 -9.40934,1.56757 -13.26861,3.01732 -3.46408,1.30129 -5.48169,2.7429 -5.48169,2.7429 0,0 2.153,-1.22827 5.6404,-2.27245 4.09081,-1.22485 7.75155,-1.66574 13.25805,-2.49881 6.39889,-0.95665 11.82265,-2.54627 16.33418,-4.44609 4.25653,-1.79245 6.83612,-3.48266 6.83612,-3.48266 0,0 -2.70895,1.47377 -7.01712,3.01806 -4.64292,1.66428 -9.89807,2.96061 -16.30133,3.92173 z"
           id="path1550"
           sodipodi:nodetypes="cc"
           inkscape:path-effect="#path-effect1562"
           inkscape:original-d="m 122.30365,245.00417 c 12.18956,-7.21986 23.98586,-2.58878 42.06875,-12.70001" />
        <path
           style="fill:#000000;fill-rule:nonzero;stroke:none;stroke-width:0.264583px;stroke-linecap:butt;stroke-linejoin:miter;stroke-opacity:1"
           d="m 120.60567,260.91291 c -5.81001,0.0868 -9.70339,0.15744 -14.21133,-0.009 -3.86977,-0.14264 -6.447987,-0.4219 -6.447987,-0.4219 0,0 2.539397,0.52669 6.413457,0.92048 4.15728,0.42258 8.78975,0.59404 14.261,0.51003 5.76894,-0.0865 10.72792,-0.44523 15.0867,-1.0149 4.09082,-0.53465 6.77061,-1.14322 6.77061,-1.14322 0,0 -2.72398,0.3621 -6.82032,0.64587 -4.66996,0.32352 -8.99847,0.41978 -15.05213,0.51236 z"
           id="path1552"
           sodipodi:nodetypes="cc"
           inkscape:path-effect="#path-effect1560"
           inkscape:original-d="m 99.946353,260.48229 c 10.279117,1.47463 30.655327,1.24941 42.531767,-0.72761" />
      </g>
    </g>
    <path
       style="fill:#f0e6e6;fill-opacity:1;stroke:#000000;stroke-width:1;stroke-linecap:round;stroke-linejoin:round;stroke-miterlimit:4;stroke-dasharray:none;stroke-opacity:1"
       d="M 55.430208,83.668354 C 43.889047,75.620441 32.895438,59.800217 22.357291,25.724605 49.658439,23.960415 68.5951,32.369332 99.880205,24.666271"
       id="path1583"
       sodipodi:nodetypes="ccc"
       inkscape:label="left ear" />
    <g
       id="g1593"
       inkscape:label="right ear"
       style="display:inline"
       transform="translate(0,-13.56602)">
      <path
         style="opacity:1;fill:#f0e6e6;fill-opacity:1;stroke:#000000;stroke-width:1;stroke-linecap:round;stroke-linejoin:miter;stroke-miterlimit:4;stroke-dasharray:none;stroke-opacity:1"
         d="M 205.70399,113.18865 C 216.59892,100.9347 241.3286,79.42955 251.16653,57.62331 224.40713,51.321766 187.4787,45.584762 162.58005,44.340015"
         id="path1585"
         sodipodi:nodetypes="ccc" />
      <path
         style="fill:#000000;fill-rule:nonzero;stroke:none;stroke-width:0.264583px;stroke-linecap:round;stroke-linejoin:round;stroke-opacity:1"
         d="m 220.96513,78.974993 c 5.90211,-3.13783 10.74638,-6.428062 14.67896,-9.629124 3.71477,-3.02377 5.88738,-5.361545 5.88738,-5.361545 0,0 -2.34979,2.159591 -6.19254,4.965969 -4.15409,3.03375 -8.89978,5.978539 -14.84342,9.141832 -5.9376,3.15827 -11.25488,5.550931 -16.02279,7.443554 -4.48795,1.781491 -7.5619,2.770172 -7.5619,2.770172 0,0 3.14121,-0.74717 7.73428,-2.300819 4.78703,-1.61926 10.41723,-3.890061 16.32003,-7.030039 z"
         id="path1587"
         sodipodi:nodetypes="cc"
         inkscape:path-effect="#path-effect1589"
         inkscape:original-d="m 241.53147,63.984324 c -11.54345,10.9818 -29.05274,19.708984 -44.62065,24.321527" />
    </g>
    <g
       id="g1196"
       inkscape:label="front hair"
       style="display:inline;opacity:1"
       transform="translate(0,-13.56602)">
      <g
         id="g1102"
         inkscape:label="hair"
         style="display:inline">
        <path
           style="display:inline;fill:#f0e6e6;fill-opacity:1;fill-rule:nonzero;stroke:none;stroke-width:0.264583;stroke-linecap:butt;stroke-linejoin:miter;stroke-miterlimit:4;stroke-dasharray:none;stroke-opacity:1"
           d="m 52.291282,127.22029 c -4.070676,6.20564 -4.36543,22.98074 -2.338608,30.12128 -7.526375,-5.08515 -13.404909,-14.79771 -13.844561,-23.199 l -7.10937,17.39925 C 29.342749,114.64632 38.79008,86.158966 56.687865,65.574579 49.801363,69.602008 37.634826,73.955238 34.262679,71.616212 46.119603,62.288606 63.593253,56.228921 77.293135,46.44068 81.474708,43.453045 88.480971,38.99319 95.508764,36.950012 86.80889,33.341571 78.050749,28.135086 73.151668,20.112032 c 13.826097,7.297352 24.410469,10.750323 35.126282,11.122736 27.13272,-2.319466 60.04081,-0.338655 79.91098,17.23028 26.96037,23.837985 23.75262,65.119022 38.2819,88.296772 -3.84998,-1.53238 -10.43599,-7.69489 -12.3592,-11.64685 -2.29883,15.14108 -8.92535,35.52823 -19.29283,40.5681 4.40277,-9.2311 4.25007,-15.73237 1.64534,-24.11284 L 154.76391,112.7544 82.823329,109.45677 Z"
           id="path1106"
           sodipodi:nodetypes="ccccccscccsccccccc" />
        <path
           style="display:inline;fill:#000000;fill-rule:nonzero;stroke:none;stroke-width:0.264583;stroke-linecap:butt;stroke-linejoin:miter;stroke-miterlimit:4;stroke-dasharray:none;stroke-opacity:1"
           d="m 49.33463,141.95837 c 0.256303,-4.25791 0.385081,-7.25741 1.213818,-10.39076 0.717754,-2.71374 1.742834,-4.34732 1.742834,-4.34732 0,0 -1.232793,1.48538 -2.216674,4.1988 -1.085653,2.9941 -1.52255,6.3418 -1.738405,10.48322 -0.330392,5.8838 0.10715,11.95299 1.135473,15.57579 l 0.760918,-0.55083 C 42.814701,151.91542 37.038753,142.35858 36.60743,134.11644 a 19.393778,19.393778 0 0 1 0.03974,-2.61503 l -8.111277,19.85129 0.962831,0.19378 c 0.343185,-36.80737 9.767182,-65.172733 27.566462,-85.643829 a 95.983849,95.983849 0 0 1 2.593197,-2.86395 39.112295,39.112295 0 0 1 -3.222932,2.10427 c -6.850894,4.006604 -18.806119,8.199947 -21.887797,6.0624 l 0.02417,0.803816 C 46.376293,62.722846 63.84182,56.665833 77.583805,46.84751 81.747796,43.872437 88.69687,39.451124 95.648349,37.430133 a 34.096344,34.096344 0 0 1 1.431949,-0.382757 91.210973,91.210973 0 0 1 -1.379973,-0.559213 C 87.042036,32.89697 78.400493,27.748429 73.578401,19.851458 l -0.660118,0.702763 c 13.866121,7.318477 24.518719,10.804087 35.342297,11.180245 a 56.507564,56.507564 0 0 0 0.0301,0.001 232.92626,232.92626 0 0 1 0.0298,-0.0026 c 27.08903,-2.315731 59.81047,-0.335429 79.53719,17.106675 26.8457,23.736596 23.58043,64.882794 38.18946,88.187764 l 0.60854,-0.73012 c -3.72703,-1.48345 -10.22482,-7.55911 -12.09451,-11.40109 a 8.6005668,8.6005668 0 0 1 -0.65803,-1.87855 99.762627,99.762627 0 0 1 -0.28589,2.02229 c -2.29171,15.09412 -8.90055,35.27558 -19.0171,40.19347 l 0.6699,0.66493 c 2.22327,-4.66145 3.30809,-8.65924 3.49859,-12.56631 0.14748,-3.10597 -0.44035,-5.99497 -1.07928,-8.21209 -0.62656,-2.17424 -1.22527,-3.54969 -1.22527,-3.54969 0,0 1.59873,5.86337 1.30574,11.71308 -0.18267,3.74647 -1.22288,7.61486 -3.40238,12.18451 a 52.927832,52.927832 0 0 1 -0.59107,1.20001 13.390014,13.390014 0 0 0 1.26097,-0.53508 c 10.61841,-5.16185 17.26261,-25.75469 19.56856,-40.94273 l -0.94392,0.14374 c 1.97673,4.06194 8.65096,10.3113 12.62389,11.89261 a 8.2162358,8.2162358 0 0 0 1.34477,0.40601 45.007333,45.007333 0 0 1 -0.73623,-1.13613 C 212.44494,113.44572 215.59517,72.029844 188.52013,48.09047 168.50651,30.394704 135.41177,28.413384 108.23536,30.736585 l 0.06,-0.0015 C 97.687272,30.366402 87.171126,26.94607 73.385053,19.669843 a 193.49505,193.49505 0 0 1 -1.52229,-0.812156 28.309225,28.309225 0 0 0 0.862172,1.514919 c 4.97607,8.149137 13.850809,13.413566 22.592268,17.039255 l 0.05198,-0.94197 C 88.265072,38.535256 81.20162,43.033653 77.002465,46.03385 63.344686,55.792009 45.862913,61.854366 33.953534,71.223237 a 56.983314,56.983314 0 0 0 -0.465312,0.369997 2.7605862,2.7605862 0 0 0 0.489485,0.433819 c 3.657135,2.536704 16.041137,-1.973005 22.962575,-6.020866 l -0.629735,-0.75968 C 38.314257,85.944185 28.843592,114.55353 28.498765,151.53716 a 222.94316,222.94316 0 0 0 -0.0091,2.57256 l 8.081344,-19.77803 -0.96217,-0.16299 c 0.447981,8.56044 6.429101,18.42872 14.063958,23.58717 a 26.375358,26.375358 0 0 0 1.191827,0.75955 16.773831,16.773831 0 0 1 -0.430909,-1.31038 c -0.998499,-3.51774 -1.426991,-9.40637 -1.099042,-15.24667 z"
           id="path1110"
           sodipodi:nodetypes="ccccccscccscccc"
           inkscape:path-effect="#path-effect1112"
           inkscape:original-d="m 52.291282,127.22029 c -4.070676,6.20564 -4.36543,22.98074 -2.338608,30.12128 -7.526375,-5.08515 -13.404909,-14.79771 -13.844561,-23.199 l -7.10937,17.39925 C 29.342749,114.64632 38.79008,86.158966 56.687865,65.574579 49.801363,69.602008 37.634826,73.955238 34.262679,71.616212 46.119603,62.288606 63.593253,56.228921 77.293135,46.44068 81.474708,43.453045 88.480971,38.99319 95.508764,36.950012 86.80889,33.341571 78.050749,28.135086 73.151668,20.112032 c 13.826097,7.297352 24.410469,10.750323 35.126282,11.122736 27.13272,-2.319466 60.04081,-0.338655 79.91098,17.23028 26.96037,23.837985 23.75262,65.119022 38.2819,88.296772 -3.84998,-1.53238 -10.43599,-7.69489 -12.3592,-11.64685 -2.29883,15.14108 -8.92535,35.52823 -19.29283,40.5681 4.40277,-9.2311 4.25007,-15.73237 1.64534,-24.11284" />
      </g>
      <g
         id="g1056"
         inkscape:label="hair 8"
         style="display:inline">
        <path
           style="display:inline;opacity:1;fill:#f0e6e6;fill-opacity:1;stroke:none;stroke-width:0.264583px;stroke-linecap:butt;stroke-linejoin:miter;stroke-opacity:1"
           d="m 128.24928,98.782816 c 1.75912,24.523114 17.92294,40.266104 32.83406,41.533684 -2.79826,-4.12443 -3.24067,-11.12326 -0.10019,-16.33084 5.72036,9.21957 13.57325,16.15328 28.19393,21.00601 -3.31338,-4.49772 -4.72907,-20.85349 -2.91041,-27.64896 0.57888,-38.958585 -53.17944,-44.831439 -58.01739,-18.559894 z"
           id="path1048"
           sodipodi:nodetypes="cccccc" />
        <path
           style="display:inline;opacity:1;fill:#000000;fill-opacity:1;fill-rule:nonzero;stroke:none;stroke-width:0.264583px;stroke-linecap:butt;stroke-linejoin:miter;stroke-opacity:1"
           d="m 140.11425,127.94546 c -5.33844,-6.23259 -8.35667,-13.26398 -10.02277,-19.28575 -1.61222,-5.82698 -1.8422,-9.876894 -1.8422,-9.876894 0,0 -0.0268,4.056484 1.35637,10.000524 1.42395,6.1194 4.2895,13.4227 9.74872,19.81217 6.19241,7.2387 14.08211,11.57274 21.68662,12.21919 a 23.935709,23.935709 0 0 0 1.09961,0.068 9.9255209,9.9255209 0 0 1 -0.6435,-0.84695 c -2.68119,-3.95187 -3.12736,-10.74834 -0.0858,-15.79191 l -0.85303,0.005 c 5.79366,9.33772 13.71409,16.32222 28.46128,21.21694 a 87.606795,87.606795 0 0 0 2.31733,0.73362 5.1232592,5.1232592 0 0 1 -1.75726,-1.50472 c -1.58095,-2.14604 -2.74588,-7.23459 -3.28468,-12.71518 -0.28872,-2.93911 -0.44799,-5.54202 -0.4737,-8.07345 -0.0356,-3.84641 0.44541,-6.56377 0.44541,-6.56377 0,0 -0.85836,2.63414 -1.11147,6.54522 -0.1639,2.50303 -0.14346,5.26231 0.14456,8.18984 0.54273,5.52059 1.74233,10.85878 3.47476,13.21046 l 0.56007,-0.7711 c -14.49417,-4.81074 -22.27952,-11.69366 -27.92658,-20.79508 a 57.619648,57.619648 0 0 1 -0.4142,-0.67797 14.414851,14.414851 0 0 0 -0.43883,0.68337 c -3.23938,5.37159 -2.80073,12.57278 0.1146,16.86977 l 0.45611,-0.77892 c -7.30661,-0.62113 -14.95438,-4.79237 -21.01144,-11.87284 z"
           id="path1064"
           sodipodi:nodetypes="ccccc"
           inkscape:path-effect="#path-effect1066"
           inkscape:original-d="m 128.24928,98.782816 c 1.75912,24.523114 17.92294,40.266104 32.83406,41.533684 -2.79826,-4.12443 -3.24067,-11.12326 -0.10019,-16.33084 5.72036,9.21957 13.57325,16.15328 28.19393,21.00601 -3.31338,-4.49772 -4.72907,-20.85349 -2.91041,-27.64896" />
      </g>
      <g
         id="g1084"
         style="display:inline"
         inkscape:label="hair 7">
        <path
           style="fill:#f0e6e6;fill-opacity:1;stroke:none;stroke-width:0.264583px;stroke-linecap:butt;stroke-linejoin:miter;stroke-opacity:1"
           d="m 177.27083,100.93854 c -1.14343,26.26117 2.14544,51.54562 -16.20573,82.4177 5.97367,-3.43891 9.59268,-6.20246 13.09688,-10.25259 2.33051,4.19421 5.66649,8.11388 9.59114,11.31093 -0.58597,-5.50319 -0.26318,-18.89082 0.7276,-24.60625 1.3175,7.19604 4.08846,15.15421 6.68074,19.31458 0.16548,-2.70641 0.93995,-6.36509 1.58749,-8.06979 4.00952,4.01733 9.72344,7.84931 14.68438,9.78959 -8.22534,-18.5614 -2.8715,-24.76825 -0.66146,-39.81979 0.22501,-33.64893 -2.64182,-50.057321 -29.50104,-40.08438 z"
           id="path1076"
           sodipodi:nodetypes="cccccccccc" />
        <path
           style="fill:#000000;fill-opacity:1;fill-rule:nonzero;stroke:none;stroke-width:0.264583px;stroke-linecap:butt;stroke-linejoin:miter;stroke-opacity:1"
           d="m 176.11731,140.47784 c 1.14917,-9.59704 1.08835,-20.02477 1.08305,-27.18039 -0.005,-7.41787 0.0705,-12.35891 0.0705,-12.35891 0,0 -0.326,4.93163 -0.5708,12.35085 -0.23292,7.0592 -0.44496,17.65686 -1.5756,27.06937 -1.60781,13.40601 -5.35555,27.37662 -14.48913,42.742 a 122.35836,122.35836 0 0 1 -0.98647,1.63049 122.54796,122.54796 0 0 0 1.66573,-0.94168 c 6.01072,-3.46025 9.66461,-6.24308 13.22554,-10.35877 l -0.81518,-0.0843 c 2.36253,4.25184 5.74315,8.22235 9.71241,11.45574 a 41.679384,41.679384 0 0 0 0.97021,0.76668 25.984265,25.984265 0 0 1 -0.15723,-1.20728 c -0.58043,-5.45113 -0.25806,-18.80821 0.72306,-24.46791 l -0.98447,0.005 c 1.3228,7.225 4.12253,15.275 6.7482,19.48895 a 19.659467,19.659467 0 0 0 0.88926,1.307 19.815543,19.815543 0 0 1 0.0342,-1.54091 c 0.16342,-2.67268 0.92696,-6.2672 1.55583,-7.92275 l -0.82131,0.17566 c 4.05113,4.05902 9.8302,7.93632 14.85616,9.90203 a 29.008993,29.008993 0 0 0 1.12848,0.41461 82.317111,82.317111 0 0 1 -0.48923,-1.08283 c -4.07571,-9.19729 -4.77848,-15.33493 -4.20371,-20.97281 0.4279,-4.2247 1.65102,-9.68857 2.22103,-12.77461 0.64802,-3.50838 0.86409,-5.8698 0.86409,-5.8698 0,0 -0.46365,2.32429 -1.35276,5.76163 -0.83032,3.21009 -2.2614,8.24138 -2.7272,12.78136 -0.59832,5.86877 0.13466,12.11526 4.28429,21.47937 l 0.63925,-0.66822 c -4.89592,-1.91485 -10.54469,-5.70151 -14.5126,-9.67715 a 35.765487,35.765487 0 0 1 -0.51814,-0.53001 8.982574,8.982574 0 0 0 -0.30317,0.70567 c -0.66621,1.75385 -1.45161,5.47669 -1.61915,8.21683 l 0.92343,-0.23391 c -2.55889,-4.10679 -5.30108,-11.97313 -6.61328,-19.14021 a 62.180706,62.180706 0 0 1 -0.41093,-2.54007 26.076896,26.076896 0 0 0 -0.57354,2.54472 c -1.00044,5.77116 -1.32365,19.18934 -0.73214,24.74459 l 0.81298,-0.4406 c -3.88004,-3.16071 -7.17138,-7.02954 -9.46987,-11.16612 a 33.661601,33.661601 0 0 1 -0.34487,-0.63671 45.517639,45.517639 0 0 1 -0.47031,0.55241 c -3.44747,3.98457 -7.0316,6.72884 -12.96822,10.14641 l 0.67926,0.68881 c 9.21759,-15.5067 13.001,-29.61435 14.62241,-43.13388 z"
           id="path1078"
           sodipodi:nodetypes="ccccccccc"
           inkscape:path-effect="#path-effect1080"
           inkscape:original-d="m 177.27083,100.93854 c -1.14343,26.26117 2.14544,51.54562 -16.20573,82.4177 5.97367,-3.43891 9.59268,-6.20246 13.09688,-10.25259 2.33051,4.19421 5.66649,8.11388 9.59114,11.31093 -0.58597,-5.50319 -0.26318,-18.89082 0.7276,-24.60625 1.3175,7.19604 4.08846,15.15421 6.68074,19.31458 0.16548,-2.70641 0.93995,-6.36509 1.58749,-8.06979 4.00952,4.01733 9.72344,7.84931 14.68438,9.78959 -8.22534,-18.5614 -2.8715,-24.76825 -0.66146,-39.81979" />
      </g>
      <g
         id="g1074"
         inkscape:label="hair 6"
         style="display:inline">
        <path
           style="display:inline;fill:#f0e6e6;fill-opacity:1;stroke:none;stroke-width:0.264583px;stroke-linecap:butt;stroke-linejoin:miter;stroke-opacity:1"
           d="m 136.12812,91.942707 c -0.005,24.455253 6.66712,51.544653 13.22917,65.881253 -0.60634,-3.40651 -1.03824,-13.12703 -0.89297,-16.23881 8.3848,11.58545 16.918,21.65013 34.29662,28.27735 -6.64068,-14.33988 -13.38096,-36.11988 -16.7349,-55.95938 -7.31505,-24.369668 -19.69387,-33.009659 -29.89792,-21.960413 z"
           id="path1058"
           sodipodi:nodetypes="cccccc" />
        <path
           style="display:inline;fill:#000000;fill-rule:nonzero;stroke:none;stroke-width:0.264583px;stroke-linecap:butt;stroke-linejoin:miter;stroke-opacity:1"
           d="m 140.76899,128.57317 c -2.03696,-9.51876 -3.25971,-17.69706 -3.95026,-25.09021 -0.64486,-6.904024 -0.69061,-11.540253 -0.69061,-11.540253 0,0 -0.20498,4.631837 0.19216,11.577753 0.41858,7.3209 1.4465,15.80798 3.47086,25.26203 2.49236,11.64329 5.8133,22.04373 9.11151,29.24956 l 1.63558,3.57337 -0.68868,-3.86908 c -0.59555,-3.34589 -1.02884,-13.06338 -0.88577,-16.12787 l -0.90451,0.26983 c 8.40554,11.61411 16.98505,21.76321 34.52351,28.45138 a 82.243372,82.243372 0 0 0 1.15092,0.42908 122.91843,122.91843 0 0 1 -0.51905,-1.10637 c -3.30857,-7.14452 -6.64556,-16.15062 -9.57504,-25.85176 -2.35926,-7.81336 -4.11862,-14.39604 -5.55322,-20.46795 -1.33096,-5.63324 -2.06035,-9.42956 -2.06035,-9.42956 0,0 0.4822,3.83547 1.5714,9.53399 1.13879,5.95791 2.77004,12.98741 5.08487,20.6526 2.93932,9.7337 6.29281,18.78754 9.62492,25.9829 l 0.63187,-0.67729 C 165.72032,162.82905 157.23343,152.84879 148.86937,141.292 a 298.1724,298.1724 0 0 1 -0.78596,-1.09114 16.980694,16.980694 0 0 0 -0.11855,1.36097 c -0.14747,3.15907 0.28304,12.88262 0.90017,16.34975 l 0.9469,-0.29571 c -3.26384,-7.13077 -6.55998,-17.44333 -9.04294,-29.0427 z"
           id="path1068"
           sodipodi:nodetypes="ccccc"
           inkscape:path-effect="#path-effect1070"
           inkscape:original-d="m 136.12812,91.942707 c -0.005,24.455253 6.66712,51.544653 13.22917,65.881253 -0.60634,-3.40651 -1.03824,-13.12703 -0.89297,-16.23881 8.3848,11.58545 16.918,21.65013 34.29662,28.27735 -6.64068,-14.33988 -13.38096,-36.11988 -16.7349,-55.95938" />
      </g>
      <g
         id="g938"
         inkscape:label="hair 5"
         style="display:inline">
        <path
           style="opacity:1;fill:#f0e6e6;fill-opacity:1;stroke:none;stroke-width:0.264583px;stroke-linecap:butt;stroke-linejoin:miter;stroke-opacity:1"
           d="m 39.221804,122.20899 c -0.549864,13.09156 1.669397,29.11822 4.307346,36.43168 -1.182214,5.71265 -3.622498,11.9565 -6.851157,17.15517 5.138954,-3.00251 9.780537,-7.70627 13.026727,-11.85366 2.297113,3.39211 6.667626,8.09986 10.148136,10.21089 -1.133508,-2.1672 -2.44024,-5.4979 -2.991266,-7.71097 5.278898,9.18188 13.304853,14.2603 18.836772,17.25034 -13.277198,-25.66616 -12.324418,-49.91999 -5.418566,-66.72408 1.274332,-14.75548 -26.020825,-20.353213 -31.057992,5.24063 z"
           id="path930"
           sodipodi:nodetypes="ccccccccc" />
        <path
           style="opacity:1;fill:#000000;fill-opacity:1;fill-rule:nonzero;stroke:none;stroke-width:0.264583px;stroke-linecap:butt;stroke-linejoin:miter;stroke-opacity:1"
           d="m 65.919834,146.98261 c -0.38952,-7.96746 0.343528,-14.93131 1.652492,-20.85447 1.236922,-5.59716 2.70747,-9.15978 2.70747,-9.15978 0,0 -1.701385,3.45839 -3.192744,9.04136 -1.564976,5.85856 -2.561858,12.98967 -2.166015,21.02192 0.561817,11.44546 3.662358,23.99507 10.333227,36.89053 l 0.681845,-0.66959 c -5.502022,-2.97388 -13.43051,-7.99671 -18.641052,-17.05969 a 37.512963,37.512963 0 0 1 -1.388733,-2.65568 17.05394,17.05394 0 0 0 0.470079,3.0257 c 0.559206,2.24592 1.887704,5.6314 3.033395,7.82189 l 0.702355,-0.65924 c -3.418942,-2.07369 -7.718652,-6.70461 -9.99343,-10.06374 a 25.621866,25.621866 0 0 1 -0.381303,-0.57982 54.923254,54.923254 0 0 1 -0.426434,0.552 c -3.224074,4.11914 -7.808648,8.76406 -12.885228,11.73013 l 0.676986,0.6955 c 3.259364,-5.24811 5.722426,-11.54994 6.916031,-17.31763 a 45.852331,45.852331 0 0 0 0.0286,-0.13929 26.87408,26.87408 0 0 1 -0.04789,-0.13169 c -1.30679,-3.62295 -2.50895,-9.39597 -3.323267,-15.94113 -0.670984,-5.39662 -1.06814,-9.77905 -1.278189,-13.94431 -0.192553,-3.81832 -0.176229,-6.37659 -0.176229,-6.37659 0,0 -0.266417,2.54434 -0.323613,6.38542 -0.05993,4.02455 0.129362,8.78709 0.785682,14.05894 0.817334,6.56942 2.043779,12.46646 3.374938,16.15697 l -0.01929,-0.27098 c -1.170823,5.65761 -3.588329,11.84348 -6.786283,16.99271 a 45.550701,45.550701 0 0 1 -1.070125,1.64308 31.250242,31.250242 0 0 0 1.747111,-0.94758 c 5.201328,-3.03895 9.89992,-7.80155 13.168226,-11.97719 l -0.807737,-0.0278 c 2.319448,3.42509 6.760764,8.20967 10.302842,10.35804 a 14.400172,14.400172 0 0 0 1.54175,0.81182 23.128512,23.128512 0 0 1 -0.839395,-1.47106 c -1.121325,-2.14391 -2.406291,-5.41983 -2.949137,-7.60005 l -0.918654,0.37002 c 5.347254,9.30078 13.470676,14.43479 19.032492,17.44099 a 91.697841,91.697841 0 0 0 1.435193,0.75939 103.96334,103.96334 0 0 1 -0.753348,-1.42898 c -6.606329,-12.7707 -9.667997,-25.18108 -10.222626,-36.4801 z"
           id="path1088"
           sodipodi:nodetypes="cccccccc"
           inkscape:path-effect="#path-effect1090"
           inkscape:original-d="m 70.279796,116.96836 c -6.905852,16.80409 -7.858632,41.05792 5.418566,66.72408 -5.531919,-2.99004 -13.557874,-8.06846 -18.836772,-17.25034 0.551026,2.21307 1.857758,5.54377 2.991266,7.71097 -3.48051,-2.11103 -7.851023,-6.81878 -10.148136,-10.21089 -3.24619,4.14739 -7.887773,8.85115 -13.026727,11.85366 3.228659,-5.19867 5.668943,-11.44252 6.851157,-17.15517 -2.637949,-7.31346 -4.85721,-23.34012 -4.307346,-36.43168" />
      </g>
      <g
         id="g948"
         inkscape:label="hair 4"
         style="display:inline">
        <path
           style="display:inline;fill:#f0e6e6;fill-opacity:1;stroke:none;stroke-width:0.264583px;stroke-linecap:butt;stroke-linejoin:miter;stroke-opacity:1"
           d="m 71.491868,101.99961 c -4.576871,13.85006 -6.961061,32.34845 -3.449033,49.79836 3.198812,-13.72642 12.896911,-33.13806 20.876062,-44.49999 C 89.887532,95.445066 77.22193,92.745409 71.491868,101.99961 Z"
           id="path940"
           sodipodi:nodetypes="cccc" />
        <path
           style="fill:#000000;fill-rule:nonzero;stroke:none;stroke-width:0.264583px;stroke-linecap:butt;stroke-linejoin:miter;stroke-opacity:1"
           d="m 67.232201,125.5914 c 0.535144,-6.26227 1.39921,-11.61749 2.420469,-16.30376 0.959473,-4.40274 1.839198,-7.28803 1.839198,-7.28803 0,0 -1.116456,2.80202 -2.324543,7.16806 -1.262057,4.5611 -2.398964,10.10032 -2.931497,16.33863 -0.732507,8.57636 -0.449893,17.61213 1.316836,26.39032 a 79.871244,79.871244 0 0 0 0.49499,2.28586 58.739767,58.739767 0 0 1 0.482133,-2.27103 c 1.589263,-6.81968 4.795848,-15.06241 8.609498,-23.03439 2.845234,-5.94611 5.260416,-10.62312 7.778327,-15.0077 2.296884,-3.9997 4.001285,-6.57138 4.001285,-6.57138 0,0 -1.907394,2.42492 -4.427864,6.31078 -2.660649,4.10197 -5.475844,9.02822 -8.25384,14.83676 -3.829891,8.00593 -7.071761,16.33223 -8.68131,23.23897 l 0.977123,0.0148 c -1.745299,-8.67172 -2.026604,-17.6101 -1.300805,-26.10792 z"
           id="path942"
           sodipodi:nodetypes="ccc"
           inkscape:path-effect="#path-effect944"
           inkscape:original-d="m 71.491868,101.99961 c -4.576871,13.85006 -6.961061,32.34845 -3.449033,49.79836 3.198812,-13.72642 12.896911,-33.13806 20.876062,-44.49999" />
      </g>
      <g
         id="g1042"
         inkscape:label="hair 3"
         style="display:inline;opacity:1">
        <path
           style="display:inline;opacity:1;fill:#f0e6e6;fill-opacity:1;stroke:none;stroke-width:0.264583px;stroke-linecap:butt;stroke-linejoin:miter;stroke-opacity:1"
           d="m 133.58131,102.24395 c -1.71327,16.71863 -8.86268,45.04237 -15.43481,56.3137 0.75754,-7.52769 -3.28976,-25.88597 -6.36102,-33.48888 0.32844,-42.226336 3.41302,-45.615603 16.66973,-46.090646 3.09769,0.01396 4.86732,2.605587 5.1261,23.265826 z"
           id="path1025"
           sodipodi:nodetypes="ccccc" />
        <path
           style="display:inline;opacity:1;fill:#000000;fill-opacity:1;fill-rule:nonzero;stroke:none;stroke-width:0.264583px;stroke-linecap:butt;stroke-linejoin:miter;stroke-opacity:1"
           d="m 128.16907,132.57244 c 2.08437,-7.80854 3.47399,-14.67022 4.36075,-20.75531 0.83425,-5.72473 1.05149,-9.57318 1.05149,-9.57318 0,0 -0.4667,3.8262 -1.54446,9.49041 -1.18645,6.23541 -2.70215,12.58802 -4.83397,20.58027 -2.82004,10.56847 -6.22828,20.40014 -9.48832,25.99116 l 0.92943,0.30192 c 0.38524,-3.82812 -0.44862,-10.37226 -1.75198,-16.8647 -0.90517,-4.51746 -1.90571,-8.2938 -3.06354,-11.61843 -1.07863,-3.0972 -2.04299,-5.05581 -2.04299,-5.05581 0,0 0.73343,2.05606 1.56512,5.20202 0.97174,3.6757 1.59536,6.86811 2.56097,11.66904 1.29872,6.46934 2.10974,12.86819 1.73744,16.56776 a 14.325346,14.325346 0 0 1 -0.48086,2.50694 31.832185,31.832185 0 0 0 1.41029,-2.20502 c 3.31209,-5.68031 6.76462,-15.64617 9.59063,-26.23707 z"
           id="path1036"
           sodipodi:nodetypes="ccc"
           inkscape:path-effect="#path-effect1038"
           inkscape:original-d="m 133.58131,102.24395 c -1.71327,16.71863 -8.86268,45.04237 -15.43481,56.3137 0.75754,-7.52769 -3.28976,-25.88597 -6.36102,-33.48888" />
        <path
           style="display:inline;fill:#000000;fill-opacity:1;fill-rule:nonzero;stroke:none;stroke-width:0.264583px;stroke-linecap:butt;stroke-linejoin:miter;stroke-opacity:1"
           d="m 125.20864,107.52592 c -0.86283,7.5063 -1.42844,13.88523 -1.74587,19.64385 -0.29614,5.37235 -0.29923,8.95835 -0.29923,8.95835 0,0 0.25303,-3.57697 0.79761,-8.91924 0.72645,-7.12634 1.2185,-10.66879 2.24095,-19.56879 0.86758,-7.54803 1.47013,-13.889912 1.84604,-19.684091 0.34923,-5.382977 0.40707,-8.977875 0.40707,-8.977875 0,0 -0.30757,3.582075 -0.90506,8.933955 -0.59757,5.352556 -1.52131,12.474901 -2.34151,19.613841 z"
           id="path1044"
           sodipodi:nodetypes="cc"
           inkscape:path-effect="#path-effect1046"
           inkscape:original-d="m 123.16354,136.12812 c 0.81878,-19.39344 4.19555,-37.676865 5.29167,-57.149996" />
      </g>
      <g
         id="g928"
         inkscape:label="hair 2"
         style="display:inline;opacity:1">
        <path
           style="display:inline;fill:#f0e6e6;fill-opacity:1;fill-rule:nonzero;stroke:none;stroke-width:0.264583;stroke-linecap:butt;stroke-linejoin:miter;stroke-miterlimit:4;stroke-dasharray:none;stroke-opacity:1"
           d="m 87.344923,105.9695 c -4.503068,19.76129 2.178398,39.97075 8.845744,56.69062 -0.979634,-4.36821 -1.856772,-15.90672 -1.694677,-19.13373 5.177519,9.93017 22.06076,29.36799 32.64295,36.48942 -2.96537,-12.57638 -6.91493,-45.50029 -6.54161,-61.07548 C 118.27868,89.706279 93.746014,94.169383 87.344923,105.9695 Z"
           id="path922"
           sodipodi:nodetypes="cccccc" />
        <path
           style="display:inline;fill:#000000;fill-opacity:1;fill-rule:nonzero;stroke:none;stroke-width:0.264583;stroke-linecap:butt;stroke-linejoin:miter;stroke-miterlimit:4;stroke-dasharray:none;stroke-opacity:1"
           d="m 88.068999,135.35638 c -1.540563,-7.64484 -2.043925,-14.28278 -1.790709,-20.20835 0.236654,-5.53802 1.066633,-9.17853 1.066633,-9.17853 0,0 -1.07469,3.57613 -1.564493,9.14597 -0.51833,5.89424 -0.243953,12.76584 1.308351,20.43883 1.949401,9.65461 5.299938,18.92146 8.637451,27.29102 l 2.327179,5.83593 -1.374862,-6.13054 C 95.712513,158.24313 94.83703,146.70353 94.99536,143.55147 l -0.942725,0.20608 c 5.218691,10.00914 22.152325,29.50277 32.807145,36.67308 a 36.826092,36.826092 0 0 0 1.06562,0.69073 67.178861,67.178861 0 0 1 -0.29981,-1.2203 c -1.47719,-6.26489 -3.20187,-17.61037 -4.51255,-29.3539 -0.99486,-8.92373 -1.69156,-14.73573 -2.1466,-21.70484 -0.38714,-5.92938 -0.36911,-9.90199 -0.36911,-9.90199 0,0 -0.26823,3.96378 -0.13021,9.92404 0.15061,6.50366 0.70969,13.35936 1.65209,21.79371 1.31211,11.75632 3.0449,23.16099 4.53308,29.47248 l 0.76581,-0.52957 c -10.50956,-7.07255 -27.34241,-26.45456 -32.478755,-36.30576 a 31.037678,31.037678 0 0 1 -0.727351,-1.49091 11.256989,11.256989 0 0 0 -0.215374,1.69699 c -0.16586,3.30196 0.712933,14.83938 1.706165,19.26822 l 0.952317,-0.29461 C 93.325269,154.12461 90.0014,144.9268 88.068999,135.35638 Z"
           id="path950"
           sodipodi:nodetypes="ccccc"
           inkscape:path-effect="#path-effect952"
           inkscape:original-d="m 87.344923,105.9695 c -4.503068,19.76129 2.178398,39.97075 8.845744,56.69062 -0.979634,-4.36821 -1.856772,-15.90672 -1.694677,-19.13373 5.177519,9.93017 22.06076,29.36799 32.64295,36.48942 -2.96537,-12.57638 -6.91493,-45.50029 -6.54161,-61.07548" />
      </g>
      <g
         id="g962"
         inkscape:label="hair 1"
         style="display:inline">
        <path
           style="display:inline;fill:#f0e6e6;fill-opacity:1;stroke:none;stroke-width:0.264583px;stroke-linecap:butt;stroke-linejoin:miter;stroke-opacity:1"
           d="M 102.99851,56.696427 C 84.940969,97.358297 80.013375,117.74445 83.060266,150.8125 c 1.347473,-22.6201 4.010573,-49.12425 19.677684,-80.756051 3.16687,-7.203357 1.95692,-10.498838 0.26056,-13.360022 z"
           id="path954"
           sodipodi:nodetypes="cccc" />
        <path
           style="display:inline;fill:#000000;fill-rule:nonzero;stroke:none;stroke-width:0.264583px;stroke-linecap:butt;stroke-linejoin:miter;stroke-opacity:1"
           d="m 85.603837,106.70826 c 2.832261,-13.053607 7.327492,-25.272813 11.051591,-34.657223 3.678872,-9.270444 6.343082,-15.35461 6.343082,-15.35461 0,0 -2.89173,5.978622 -6.806193,15.164071 -3.955174,9.280982 -8.710164,21.497958 -11.565702,34.635542 -3.122578,14.37884 -3.591587,27.78597 -2.06424,44.36234 a 244.91774,244.91774 0 0 0 0.653101,6.21828 710.66705,710.66705 0 0 1 0.343905,-6.23443 c 0.673271,-11.30223 1.674198,-23.5546 4.459358,-36.92641 2.451969,-11.77335 5.723888,-21.995286 9.014363,-30.521984 3.133608,-8.120213 5.704848,-13.337387 5.704848,-13.337387 0,0 -2.793917,5.101098 -6.168705,13.150683 -3.517532,8.390057 -7.074811,18.720808 -9.529496,30.504778 -2.800037,13.44324 -3.804396,25.75299 -4.478598,37.07086 l 0.997006,-0.0162 c -1.519544,-16.49168 -1.048202,-29.81166 2.04568,-44.05836 z"
           id="path956"
           sodipodi:nodetypes="ccc"
           inkscape:path-effect="#path-effect958"
           inkscape:original-d="M 102.99851,56.696427 C 84.940969,97.358297 80.013375,117.74445 83.060266,150.8125 84.407739,128.1924 87.070839,101.68825 102.73795,70.056449" />
      </g>
      <g
         id="g1253"
         inkscape:label="detail">
        <path
           style="fill:#000000;fill-rule:nonzero;stroke:none;stroke-width:0.264583px;stroke-linecap:butt;stroke-linejoin:miter;stroke-opacity:1"
           d="m 69.413645,54.350185 c -9.55975,9.379398 -16.572672,19.256108 -21.585863,28.039159 -4.800087,8.409694 -7.081949,14.448155 -7.081949,14.448155 0,0 2.51638,-5.944748 7.513032,-14.194654 5.243417,-8.657338 12.342742,-18.24558 21.855128,-27.578858 4.806486,-4.713319 8.934475,-8.283139 13.313761,-11.228983 1.93688,-1.301794 3.398917,-2.134979 4.865257,-2.751865 0,0 10e-7,-1e-6 10e-7,-1e-6 2.01205,-0.83287 3.146573,-0.625215 3.146573,-0.625215 0,0 -1.131301,-0.325545 -3.22554,0.419916 0,0 -10e-7,0 -10e-7,0 -1.509257,0.528032 -3.06673,1.295728 -5.072437,2.508464 -4.482621,2.708168 -8.952534,6.275912 -13.727962,10.963882 z"
           id="path1198"
           sodipodi:nodetypes="cc"
           inkscape:path-effect="#path-effect1240"
           inkscape:original-d="M 40.745833,96.837499 C 56.262292,61.187276 85.712752,38.933146 91.439585,40.457923" />
        <path
           style="fill:#000000;fill-rule:nonzero;stroke:none;stroke-width:0.264583px;stroke-linecap:butt;stroke-linejoin:miter;stroke-opacity:1"
           d="m 70.141672,70.955633 c -5.200946,7.578486 -8.960416,14.793723 -11.643889,21.217952 -2.546379,6.096025 -3.680803,10.351005 -3.680803,10.351005 0,0 1.375453,-4.183363 4.138198,-10.149685 2.946513,-6.36318 6.805004,-13.263854 12.01107,-20.853522 4.770142,-6.949821 9.222035,-12.477095 13.6305,-17.159402 4.101118,-4.355868 7.170244,-6.935004 7.170244,-6.935004 0,0 -3.224722,2.381728 -7.526798,6.584948 -4.553885,4.449244 -9.351287,10.02205 -14.098522,16.943708 z"
           id="path1200"
           sodipodi:nodetypes="cc"
           inkscape:path-effect="#path-effect1238"
           inkscape:original-d="M 54.81698,102.52459 C 61.855085,80.719451 77.427484,59.266047 91.766992,47.426977" />
        <path
           style="fill:#000000;fill-rule:nonzero;stroke:none;stroke-width:0.264583px;stroke-linecap:butt;stroke-linejoin:miter;stroke-opacity:1"
           d="m 67.957606,82.054723 c 0.482878,-2.98213 1.013279,-5.395499 1.649174,-7.630477 0.584965,-2.05597 1.096049,-3.402274 1.096049,-3.402274 0,0 -2.789701,5.033028 -3.732405,10.873154 -0.669431,4.140759 -0.851692,8.660639 -0.349509,13.339592 a 50.059101,50.059101 0 0 0 0.391392,2.864402 55.283858,55.283858 0 0 1 0.592106,-2.801741 c 0.890982,-3.734998 2.253305,-7.72181 3.811372,-11.387384 1.185567,-2.785793 1.946314,-4.593437 2.984587,-6.713327 0.881856,-1.800525 1.557628,-2.96924 1.557628,-2.96924 0,0 -0.880253,1.02367 -1.991829,2.721875 -1.169937,1.787365 -2.372547,3.982808 -3.470699,6.569509 -1.5756,3.706822 -2.958678,7.752399 -3.863765,11.546529 l 0.983498,0.06266 c -0.492308,-4.58695 -0.313512,-9.016135 0.342401,-13.073279 z"
           id="path1202"
           sodipodi:nodetypes="ccc"
           inkscape:path-effect="#path-effect1236"
           inkscape:original-d="M 70.702829,71.021972 C 67.840174,77.283231 66.123569,85.915457 67.11806,95.18136 68.914129,87.652232 72.608861,79.116582 75.958,74.227428" />
        <path
           style="fill:#000000;fill-rule:nonzero;stroke:none;stroke-width:0.264583px;stroke-linecap:butt;stroke-linejoin:miter;stroke-opacity:1"
           d="m 114.69319,60.01131 c 2.70525,-6.212215 5.08728,-11.064925 7.73102,-15.529766 2.40972,-4.069609 4.32836,-6.596088 4.32836,-6.596088 0,0 -2.11258,2.366867 -4.75134,6.330262 -2.81717,4.231368 -5.56162,9.270124 -8.22501,15.396619 -2.69469,6.185704 -4.50788,11.609886 -5.62901,16.626625 -1.044,4.671572 -1.22604,7.857393 -1.22604,7.857393 0,0 0.43234,-3.161357 1.71033,-7.735762 1.40961,-5.045494 3.33486,-10.074509 6.06169,-16.349283 z"
           id="path1204"
           sodipodi:nodetypes="cc"
           inkscape:path-effect="#path-effect1234"
           inkscape:original-d="m 126.75257,37.885456 c -8.65589,10.979892 -18.11462,32.086788 -19.8314,46.210899" />
        <path
           style="fill:#000000;fill-rule:nonzero;stroke:none;stroke-width:0.264583px;stroke-linecap:butt;stroke-linejoin:miter;stroke-opacity:1"
           d="m 113.52266,81.426394 c -1.47135,-7.142508 -2.14984,-14.462689 -2.14984,-14.462689 0,0 -0.33396,7.361458 1.17041,14.664449 0.98654,4.789114 2.39958,9.298043 4.2219,12.890717 a 31.227997,31.227997 0 0 0 1.43289,2.526329 39.395024,39.395024 0 0 1 -0.4916,-2.820414 c -0.33273,-2.427413 -0.52016,-5.477901 -0.53055,-8.400504 -0.005,-1.907979 -0.0813,-3.806817 -0.0639,-5.233651 0.0173,-1.42512 0.0991,-2.387569 0.0991,-2.387569 0,0 -0.32683,0.909205 -0.59619,2.337691 -0.28517,1.512286 -0.44813,3.279474 -0.43898,5.287083 0.0105,2.952879 0.20073,6.059084 0.5398,8.532752 l 0.94129,-0.294085 c -1.77122,-3.491909 -3.15918,-7.906409 -4.13431,-12.640109 z"
           id="path1206"
           sodipodi:nodetypes="ccc"
           inkscape:path-effect="#path-effect1232"
           inkscape:original-d="m 111.37282,66.963705 c 0.23624,9.482124 2.24469,20.244399 5.83823,27.328982 -0.6718,-4.901081 -0.75533,-12.313386 0,-16.089625" />
        <path
           style="fill:#000000;fill-rule:nonzero;stroke:none;stroke-width:0.264583px;stroke-linecap:butt;stroke-linejoin:miter;stroke-opacity:1"
           d="m 117.01638,32.283941 c -1.79047,0.446409 -3.3245,1.115862 -4.53283,1.818674 -1.15499,0.671782 -1.8206,1.257143 -1.8206,1.257143 0,0 0.80322,-0.374673 2.03007,-0.803776 1.40946,-0.492975 2.70681,-0.833585 4.56644,-1.302035 3.49811,-0.876133 7.1545,-1.448874 7.1545,-1.448874 0,0 -3.69793,-0.448748 -7.39758,0.478868 z"
           id="path1208"
           sodipodi:nodetypes="cc"
           inkscape:path-effect="#path-effect1230"
           inkscape:original-d="m 110.66295,35.359758 c 3.60911,-2.231621 9.0738,-3.492322 13.75101,-3.554685" />
        <path
           style="fill:#000000;fill-rule:nonzero;stroke:none;stroke-width:0.264583px;stroke-linecap:butt;stroke-linejoin:miter;stroke-opacity:1"
           d="m 164.84083,93.767988 c -0.58284,-7.865862 -3.65699,-15.313402 -6.653,-21.977283 0,0 0,-4e-6 0,-4e-6 -4.46568,-9.952356 -9.65938,-19.311967 -13.10575,-25.388279 -3.59681,-6.341567 -5.88811,-10.200766 -5.88811,-10.200766 0,0 2.16819,3.930036 5.60874,10.354773 3.27634,6.118111 8.30496,15.64963 12.60957,25.576417 0,0 0,4e-6 0,4e-6 2.89437,6.68799 5.88242,14.061517 6.4312,21.707893 0.38684,5.262348 -0.88324,10.339727 -3.13142,14.545627 0,0 0,1e-5 0,1e-5 -2.27872,4.27024 -5.46047,8.29178 -7.31226,10.62668 -2.02819,2.55731 -3.26115,4.09128 -3.26115,4.09128 0,0 1.32026,-1.45526 3.47004,-3.91742 1.97835,-2.26583 5.30595,-6.12426 7.7719,-10.43075 0,0 0,-1e-5 0,-1e-5 2.43558,-4.2616 3.85737,-9.503459 3.46024,-14.988172 z"
           id="path1210"
           sodipodi:nodetypes="cc"
           inkscape:path-effect="#path-effect1228"
           inkscape:original-d="m 139.19397,36.201656 c 33.84014,59.99934 29.57345,64.640324 10.94468,86.902684" />
        <path
           style="fill:#000000;fill-rule:nonzero;stroke:none;stroke-width:0.264583px;stroke-linecap:butt;stroke-linejoin:miter;stroke-opacity:1"
           d="m 157.37221,95.907578 c 1.20617,-12.037696 0.37785,-24.059009 0.37785,-24.059009 0,0 -0.17743,12.036715 -1.37286,23.959277 -0.58932,5.804184 -0.97695,9.863564 -2.04244,14.215914 -0.92483,3.77775 -2.04459,6.1583 -2.04459,6.1583 0,0 1.3431,-2.26299 2.52457,-6.02422 1.30255,-4.14672 2.00021,-8.61765 2.55747,-14.250262 z"
           id="path1212"
           sodipodi:nodetypes="cc"
           inkscape:path-effect="#path-effect1226"
           inkscape:original-d="m 157.75006,71.848569 c 0.25101,14.48405 -0.76533,34.762501 -5.45989,44.333491" />
        <path
           style="fill:#000000;fill-rule:nonzero;stroke:none;stroke-width:0.264583px;stroke-linecap:butt;stroke-linejoin:miter;stroke-opacity:1"
           d="m 151.70198,35.218343 c -2.94739,-1.307146 -5.7341,-2.136807 -8.12018,-2.637797 -2.28075,-0.478873 -3.82656,-0.588384 -3.82656,-0.588384 0,0 1.50791,0.35768 3.69773,1.071292 2.40163,0.782633 4.84174,1.739844 7.84386,3.069142 2.84542,1.263375 4.96509,2.276234 7.04251,3.475879 1.85606,1.071812 3.02464,1.925208 3.02464,1.925208 0,0 -1.00335,-1.042813 -2.75002,-2.342448 -1.8444,-1.372347 -4.14279,-2.748101 -6.91198,-3.972892 z"
           id="path1214"
           sodipodi:nodetypes="cc"
           inkscape:path-effect="#path-effect1224"
           inkscape:original-d="m 139.75524,31.992162 c 7.55752,1.30962 16.55734,5.332026 21.60874,9.541521" />
        <path
           style="fill:#000000;fill-rule:nonzero;stroke:none;stroke-width:0.264583px;stroke-linecap:butt;stroke-linejoin:miter;stroke-opacity:1"
           d="m 193.60487,90.031877 c -3.23145,-11.237507 -7.73171,-20.713714 -12.292,-28.279611 -4.35179,-7.219968 -7.97522,-11.518959 -7.97522,-11.518959 0,0 3.42697,4.457336 7.54338,11.770578 4.34077,7.711822 8.54344,17.113026 11.76279,28.304398 2.39383,8.327765 3.81381,15.586277 4.58052,22.147417 0.71704,6.13607 0.71547,10.27447 0.71547,10.27447 0,0 0.25289,-4.13062 -0.21801,-10.32241 -0.49686,-6.53325 -1.7258,-14.066693 -4.11693,-22.375883 z"
           id="path1216"
           sodipodi:nodetypes="cc"
           inkscape:path-effect="#path-effect1222"
           inkscape:original-d="m 173.33765,50.233307 c 19.83681,26.143448 24.72699,56.188993 24.60216,72.496863" />
        <path
           style="fill:#000000;fill-rule:nonzero;stroke:none;stroke-width:0.264583px;stroke-linecap:butt;stroke-linejoin:miter;stroke-opacity:1"
           d="m 203.45773,123.15183 c -0.57605,-1.80249 -1.24213,-3.46862 -1.89733,-4.89692 -0.8975,-1.96066 -1.7497,-3.19538 -1.7497,-3.19538 0,0 0.54246,1.38038 1.16911,3.41644 0.34833,1.13844 1.06525,3.54096 1.5254,4.98032 0.70533,2.21428 1.52738,4.37723 2.04801,6.02786 0.51995,1.64852 0.77659,2.78754 0.77659,2.78754 0,0 -0.008,-1.16798 -0.29041,-2.90294 -0.30582,-1.87635 -0.83,-3.87344 -1.58167,-6.21692 z"
           id="path1218"
           sodipodi:nodetypes="cc"
           inkscape:path-effect="#path-effect1220"
           inkscape:original-d="m 199.8107,115.05953 c 1.57454,2.6741 5.04115,13.57393 5.51911,17.21216" />
      </g>
    </g>
  </g>
</svg>
