<svg xmlns="http://www.w3.org/2000/svg" width="100mm" height="100mm" viewBox="0 0 100 100"><g><g transform="translate(3.506 3.506) scale(.72646)"><circle cx="64" cy="64" r="57.944" fill="none" stroke="#1ca" stroke-width="8" stroke-linejoin="round"/><circle cx="42.441" cy="48" r="9.559" fill="#1ca"/><circle r="9.559" cy="48" cx="85.559" fill="#1ca"/><path d="M92 76.051s-8 16-28 16-28-16-28-16" fill="none" stroke="#1ca" stroke-width="8" stroke-linecap="round"/></g><g transform="matrix(.71734 0 0 .72584 4.136 103.585)"><circle cx="64" cy="64" r="57.944" fill="none" stroke="#1ca" stroke-width="8" stroke-linejoin="round"/><g transform="translate(-94.848 24)" fill="#1ca"><circle r="9.559" cy="48" cx="140.068"/><circle cx="177.627" cy="48" r="9.559"/></g><path d="M30.818 54.555s4.121-2.089 12.39.127C51.475 56.897 54 60.767 54 60.767m20 0s2.524-3.87 10.793-6.085c8.268-2.216 12.39-.127 12.39-.127" fill="none" stroke="#1ca" stroke-width="8" stroke-linecap="round"/><path d="M100.222 15.641c6.644-.135 15.803-1.963 22.447-6.302 0 17.763-7.23 24.788-7.23 24.788zm-72.57 0c-6.644-.135-15.803-1.963-22.447-6.302 0 17.763 7.23 24.788 7.23 24.788z" fill="#1ca" stroke="#1ca" stroke-width="8"/><path d="M36 88c24 12 32 12 56 0-12 16-24 16-28 16s-16 0-28-16z" fill="#1ca"/></g><g transform="translate(3.506 203.506) scale(.72646)"><circle cx="64" cy="64" r="57.944" fill="none" stroke="#1ca" stroke-width="8" stroke-linejoin="round"/><circle cx="42.441" cy="48" r="9.559" fill="#1ca"/><circle r="9.559" cy="48" cx="85.559" fill="#1ca"/><path d="M92 76.051s-8 16-28 16-28-16-28-16" fill="none" stroke="#1ca" stroke-width="8" stroke-linecap="round"/></g><animateTransform attributeName="transform" attributeType="XML" type="translate" values="0,0;0,-200" dur="2s" repeatCount="indefinite"/></g></svg> 
