<svg xmlns="http://www.w3.org/2000/svg" width="100mm" height="400mm" viewBox="0 0 100 400"><defs><clipPath clipPathUnits="userSpaceOnUse" id="a"><path class="powerclip" d="M-5-5h110v410H-5zm73.898 25.184l-5.976 2.406c2.018 2.95 4.346 7.373 5.899 10.478l6.053-2.562c-1.474-2.794-4.113-7.605-5.976-10.322zm8.926-3.415l-6.054 2.406c2.173 2.872 4.579 7.296 6.131 10.4l5.976-2.561c-1.32-2.639-4.113-7.45-6.053-10.245zm-41.522 6.597H25.203c.31 1.863.544 5.666.544 7.839v41.056c0 6.52 3.802 10.09 10.322 11.254 3.26.543 7.76.854 12.65.854 8.538 0 19.791-.466 26.854-1.553V71.873c-6.209 1.63-18.394 2.561-26.233 2.561-3.415 0-6.519-.077-8.692-.465-3.337-.621-4.89-1.475-4.89-4.735V55.342c9.78-2.484 21.81-6.209 29.57-9.158 2.484-.931 5.821-2.406 8.77-3.648l-4.036-9.546c-3.026 1.785-5.588 3.027-8.226 4.113-6.752 2.794-17.152 6.132-26.078 8.382v-14.28c0-2.096.233-5.588.544-7.839zm18.16 76.06L43.52 96.087c-.698 2.483-2.328 5.976-3.492 7.839-3.803 6.519-10.71 16.841-23.904 25.068l8.149 6.286c7.606-5.277 14.59-12.573 19.868-19.558H65.64c-1.165 4.657-4.424 11.176-8.227 16.687-4.812-3.182-9.624-6.287-13.582-8.537l-6.675 6.752c3.88 2.483 8.848 5.898 13.738 9.468-6.21 6.21-14.591 12.418-27.63 16.376l8.77 7.606c11.642-4.424 20.257-10.865 26.853-17.85 3.105 2.483 5.899 4.811 7.994 6.752l7.14-8.537c-2.172-1.786-5.122-3.959-8.381-6.287 5.355-7.528 9.158-15.677 11.176-21.731.698-1.863 1.707-3.958 2.483-5.433l-7.683-4.657c-1.63.466-4.191.777-6.52.777H49.806c.931-1.63 2.794-5.045 4.657-7.684zm-20.644 77.843l-3.57 9.08c10.633 1.398 32.053 6.21 40.746 9.391l3.958-9.468c-9.546-3.337-31.277-7.761-41.134-9.003zm-3.492 20.412l-3.493 9.235c11.254 1.786 30.579 6.132 39.194 9.469l3.725-9.546c-9.469-3.26-28.638-7.373-39.426-9.158zm-3.803 21.653l-3.88 9.546c12.184 1.863 35.933 7.373 46.022 11.564l4.27-9.856c-10.4-3.88-33.529-9.236-46.412-11.254zm4.035 37.797l-7.062 7.606c5.51 3.803 14.979 12.03 18.86 16.22l7.683-7.916c-4.424-4.579-14.203-12.34-19.48-15.91zm-9.468 50.214l6.364 9.934c10.71-1.785 20.334-5.976 28.018-10.555 12.107-7.295 22.119-17.695 27.862-27.94l-5.898-10.555c-4.812 10.09-14.591 21.576-27.475 29.182-7.295 4.424-16.997 8.227-28.871 9.934zM39.54 337.68v34.523h5.23q8.944 0 13.643-4.434 4.737-4.434 4.737-12.885 0-8.412-4.7-12.808-4.699-4.396-13.68-4.396zm-14.59-11.028v56.579h15.386q12.733 0 19.1-1.82 6.366-1.856 10.914-6.252 3.979-3.828 5.912-8.83 1.932-5.04 1.932-11.445 0-6.328-1.932-11.33-1.933-5.003-5.912-8.83-4.51-4.396-10.838-6.215-6.291-1.857-19.176-1.857z"/></clipPath></defs><path clip-path="url(#a)" d="M0 0h100v400H0z" fill="#1ca"/></svg>
